<?xml version="1.0" encoding="UTF-8"?>
<!DOCTYPE svg PUBLIC "-//W3C//DTD SVG 1.1//EN" "http://www.w3.org/Graphics/SVG/1.1/DTD/svg11.dtd">
<svg xmlns="http://www.w3.org/2000/svg" version="1.1" width="1024px" height="1024px" style="shape-rendering:geometricPrecision; text-rendering:geometricPrecision; image-rendering:optimizeQuality; fill-rule:evenodd; clip-rule:evenodd" xmlns:xlink="http://www.w3.org/1999/xlink">
<g><path style="opacity:1" fill="#00c9f8" d="M 547.5,162.5 C 552.959,163.951 558.626,164.951 564.5,165.5C 622.26,174.394 674.26,196.394 720.5,231.5C 718.695,232.237 717.029,233.237 715.5,234.5C 716.376,235.251 717.376,235.751 718.5,236C 717.458,237.918 716.292,239.751 715,241.5C 714.703,238.136 712.869,236.803 709.5,237.5C 705.762,237.579 702.428,238.746 699.5,241C 697.231,241.758 695.064,241.591 693,240.5C 690.443,242.189 687.609,243.356 684.5,244C 685.448,244.483 686.448,244.649 687.5,244.5C 687.374,246.2 686.707,247.7 685.5,249C 686.022,249.95 686.689,250.784 687.5,251.5C 684.46,252.375 681.46,253.375 678.5,254.5C 676.941,253.926 675.441,253.26 674,252.5C 671,253.167 668,253.833 665,254.5C 664.25,253.874 663.416,253.374 662.5,253C 664.246,252.529 665.913,251.862 667.5,251C 667.167,250.667 666.833,250.333 666.5,250C 668.307,248.398 670.307,247.064 672.5,246C 671.833,245.333 671.167,244.667 670.5,244C 666.226,244.291 661.893,244.457 657.5,244.5C 657.5,245.5 657.5,246.5 657.5,247.5C 658.873,247.343 660.207,247.51 661.5,248C 659.311,248.677 658.978,249.844 660.5,251.5C 659.244,252.03 657.744,252.03 656,251.5C 651.978,256.3 653.145,259.134 659.5,260C 655.461,262.555 652.461,261.722 650.5,257.5C 649.269,258.651 649.269,259.817 650.5,261C 648.714,261.785 647.214,262.951 646,264.5C 644.644,263.62 643.144,263.286 641.5,263.5C 638.515,262.674 635.849,261.341 633.5,259.5C 629.644,255.036 624.644,252.703 618.5,252.5C 598.383,244.637 577.717,238.637 556.5,234.5C 552.817,232.75 548.817,232.083 544.5,232.5C 515.755,229.627 487.088,230.293 458.5,234.5C 451.598,234.066 444.932,235.066 438.5,237.5C 438.137,238.183 437.804,238.85 437.5,239.5C 420.468,244.51 403.802,250.51 387.5,257.5C 385.208,257.756 383.041,257.423 381,256.5C 380.648,258.247 380.148,259.914 379.5,261.5C 362.349,270.909 346.016,281.576 330.5,293.5C 327.912,293.543 325.746,294.543 324,296.5C 323.333,295.833 322.667,295.167 322,294.5C 320.363,295.833 319.529,297.166 319.5,298.5C 317.691,296.512 315.524,295.178 313,294.5C 310.759,294.68 310.259,295.513 311.5,297C 310.953,297.925 310.287,298.758 309.5,299.5C 308.167,298.5 306.833,297.5 305.5,296.5C 304.833,297.833 304.167,299.167 303.5,300.5C 301.606,299.399 300.939,298.066 301.5,296.5C 300.051,297.617 298.384,298.284 296.5,298.5C 293.413,297.318 290.58,297.318 288,298.5C 286.108,299.13 284.441,300.13 283,301.5C 279.334,300.011 277.334,301.345 277,305.5C 275.122,303.302 272.955,303.136 270.5,305C 275.254,307.263 276.421,310.763 274,315.5C 273.729,311.87 272.062,310.87 269,312.5C 268,311.833 267,311.167 266,310.5C 265.691,308.487 266.358,308.154 268,309.5C 268.808,307.421 268.641,305.421 267.5,303.5C 267.167,304.167 266.833,304.833 266.5,305.5C 262.429,303.68 259.262,304.68 257,308.5C 252.456,307.732 247.956,307.399 243.5,307.5C 241.227,308.279 239.394,309.612 238,311.5C 234.57,311.195 232.07,309.528 230.5,306.5C 230.167,306.833 229.833,307.167 229.5,307.5C 230.929,309.331 231.429,311.331 231,313.5C 227.593,312.803 226.426,310.97 227.5,308C 226.551,307.383 225.718,307.549 225,308.5C 224.517,307.552 224.351,306.552 224.5,305.5C 224.5,304.833 224.5,304.167 224.5,303.5C 243.896,278.602 265.896,256.102 290.5,236C 312.593,218.952 336.26,204.452 361.5,192.5C 393.143,178.371 426.143,169.038 460.5,164.5C 465.414,164.638 470.081,163.972 474.5,162.5C 498.819,159.895 523.153,159.895 547.5,162.5 Z"/></g>
<g><path style="opacity:0.933" fill="#043150" d="M 547.5,162.5 C 550.167,162.5 552.833,162.5 555.5,162.5C 558.592,163.184 561.592,164.184 564.5,165.5C 558.626,164.951 552.959,163.951 547.5,162.5 Z"/></g>
<g><path style="opacity:1" fill="#027ea7" d="M 474.5,162.5 C 470.081,163.972 465.414,164.638 460.5,164.5C 464.943,163.199 469.609,162.532 474.5,162.5 Z"/></g>
<g><path style="opacity:0.504" fill="#030d23" d="M 555.5,162.5 C 552.833,162.5 550.167,162.5 547.5,162.5C 523.153,159.895 498.819,159.895 474.5,162.5C 469.609,162.532 464.943,163.199 460.5,164.5C 426.143,169.038 393.143,178.371 361.5,192.5C 360.833,192.5 360.167,192.5 359.5,192.5C 421.891,163.213 487.224,153.213 555.5,162.5 Z"/></g>
<g><path style="opacity:0.792" fill="#0179a0" d="M 544.5,232.5 C 548.817,232.083 552.817,232.75 556.5,234.5C 552.316,234.149 548.316,233.482 544.5,232.5 Z"/></g>
<g><path style="opacity:1" fill="#00c4f5" d="M 720.5,231.5 C 735.737,242.069 749.404,254.403 761.5,268.5C 758.956,272.268 756.956,276.435 755.5,281C 757.405,281.826 757.739,282.993 756.5,284.5C 752.664,282.569 748.664,280.902 744.5,279.5C 740.796,280.327 738.963,282.66 739,286.5C 737.287,287.878 735.953,289.545 735,291.5C 732.606,290.049 730.439,290.382 728.5,292.5C 726.889,291.68 726.222,290.346 726.5,288.5C 724.567,288.729 722.9,289.562 721.5,291C 716.77,291.509 712.103,292.342 707.5,293.5C 706.5,295.833 704.833,297.5 702.5,298.5C 704.078,299.072 705.578,299.406 707,299.5C 707.915,298.672 708.581,297.672 709,296.5C 715.816,297.772 722.316,296.772 728.5,293.5C 730.73,295.706 733.064,297.206 735.5,298C 733.76,299.684 732.594,301.518 732,303.5C 733.635,302.151 735.135,302.318 736.5,304C 732.89,305.244 729.556,305.911 726.5,306C 725.167,305 723.833,304 722.5,303C 725.35,301.954 728.017,301.287 730.5,301C 728.939,300.682 727.772,299.849 727,298.5C 725.016,300.613 722.516,301.78 719.5,302C 720.167,302.333 720.833,302.667 721.5,303C 719.134,304.233 716.634,305.066 714,305.5C 707.326,304.469 701.159,302.469 695.5,299.5C 696.138,295.729 697.972,292.729 701,290.5C 700.707,295.241 702.54,295.741 706.5,292C 703.341,290.312 700.341,288.479 697.5,286.5C 694.91,288.38 693.41,287.714 693,284.5C 692.275,283.941 691.442,283.608 690.5,283.5C 686.416,284.309 682.416,285.309 678.5,286.5C 678.5,285.5 678.5,284.5 678.5,283.5C 679.675,283.719 680.675,283.386 681.5,282.5C 679.433,281.866 677.6,280.866 676,279.5C 675.717,282.742 674.883,283.076 673.5,280.5C 674.902,279.158 674.569,278.324 672.5,278C 675.3,276.768 678.3,276.101 681.5,276C 682.759,275.077 684.092,274.243 685.5,273.5C 684.726,272.289 683.893,272.289 683,273.5C 679.224,270.953 675.558,271.286 672,274.5C 671.282,273.549 670.449,273.383 669.5,274C 668.167,274.667 668.167,275.333 669.5,276C 666.464,275.995 663.464,275.495 660.5,274.5C 653.995,271.083 647.662,267.416 641.5,263.5C 643.144,263.286 644.644,263.62 646,264.5C 647.214,262.951 648.714,261.785 650.5,261C 649.269,259.817 649.269,258.651 650.5,257.5C 652.461,261.722 655.461,262.555 659.5,260C 653.145,259.134 651.978,256.3 656,251.5C 657.744,252.03 659.244,252.03 660.5,251.5C 658.978,249.844 659.311,248.677 661.5,248C 660.207,247.51 658.873,247.343 657.5,247.5C 657.5,246.5 657.5,245.5 657.5,244.5C 661.893,244.457 666.226,244.291 670.5,244C 671.167,244.667 671.833,245.333 672.5,246C 670.307,247.064 668.307,248.398 666.5,250C 666.833,250.333 667.167,250.667 667.5,251C 665.913,251.862 664.246,252.529 662.5,253C 663.416,253.374 664.25,253.874 665,254.5C 668,253.833 671,253.167 674,252.5C 675.441,253.26 676.941,253.926 678.5,254.5C 681.46,253.375 684.46,252.375 687.5,251.5C 686.689,250.784 686.022,249.95 685.5,249C 686.707,247.7 687.374,246.2 687.5,244.5C 686.448,244.649 685.448,244.483 684.5,244C 687.609,243.356 690.443,242.189 693,240.5C 695.064,241.591 697.231,241.758 699.5,241C 702.428,238.746 705.762,237.579 709.5,237.5C 712.869,236.803 714.703,238.136 715,241.5C 716.292,239.751 717.458,237.918 718.5,236C 717.376,235.751 716.376,235.251 715.5,234.5C 717.029,233.237 718.695,232.237 720.5,231.5 Z"/></g>
<g><path style="opacity:1" fill="#039bc4" d="M 458.5,234.5 C 451.648,236.295 444.648,237.962 437.5,239.5C 437.804,238.85 438.137,238.183 438.5,237.5C 444.932,235.066 451.598,234.066 458.5,234.5 Z"/></g>
<g><path style="opacity:0.875" fill="#011632" d="M 359.5,192.5 C 360.167,192.5 360.833,192.5 361.5,192.5C 336.26,204.452 312.593,218.952 290.5,236C 265.896,256.102 243.896,278.602 224.5,303.5C 259.6,254.451 304.6,217.451 359.5,192.5 Z"/></g>
<g><path style="opacity:1" fill="#059bc3" d="M 618.5,252.5 C 624.644,252.703 629.644,255.036 633.5,259.5C 628.311,257.403 623.311,255.07 618.5,252.5 Z"/></g>
<g><path style="opacity:1" fill="#0890b6" d="M 387.5,257.5 C 385.151,259.341 382.485,260.674 379.5,261.5C 380.148,259.914 380.648,258.247 381,256.5C 383.041,257.423 385.208,257.756 387.5,257.5 Z"/></g>
<g><path style="opacity:1" fill="#00beee" d="M 761.5,268.5 C 766.208,272.207 770.208,276.54 773.5,281.5C 772.699,283.042 772.366,284.708 772.5,286.5C 777.255,286.156 778.588,288.156 776.5,292.5C 777.85,294.02 779.183,294.687 780.5,294.5C 779.009,296.012 777.176,297.012 775,297.5C 773.701,297.034 772.201,297.034 770.5,297.5C 770.5,298.833 770.5,300.167 770.5,301.5C 767.995,301.98 765.662,302.98 763.5,304.5C 760.681,303.03 758.014,303.196 755.5,305C 756.155,306.487 757.155,307.653 758.5,308.5C 760.85,307.909 763.017,306.909 765,305.5C 766.333,306.167 767.667,306.833 769,307.5C 769.772,307.355 770.439,307.022 771,306.5C 773.456,307.574 775.956,308.574 778.5,309.5C 777.5,310.333 776.5,311.167 775.5,312C 777.715,312.17 779.715,312.837 781.5,314C 775.2,313.429 769.367,314.929 764,318.5C 762.527,318.097 761.194,317.43 760,316.5C 759.667,316.833 759.333,317.167 759,317.5C 757.881,316.448 757.381,315.281 757.5,314C 754.843,313.825 752.176,313.992 749.5,314.5C 749.657,315.873 749.49,317.207 749,318.5C 748.5,318 748,317.5 747.5,317C 744.167,316.333 740.833,316.333 737.5,317C 734.982,318.199 732.482,319.365 730,320.5C 728.674,320.245 727.674,319.578 727,318.5C 726.163,320.007 724.996,320.507 723.5,320C 723.833,319.667 724.167,319.333 724.5,319C 722.156,318.817 719.823,317.817 717.5,316C 717.833,315.667 718.167,315.333 718.5,315C 717.333,313.833 716.167,312.667 715,311.5C 714.517,312.448 714.351,313.448 714.5,314.5C 712.079,314.122 709.746,313.455 707.5,312.5C 692.967,298.287 677.3,285.62 660.5,274.5C 663.464,275.495 666.464,275.995 669.5,276C 668.167,275.333 668.167,274.667 669.5,274C 670.449,273.383 671.282,273.549 672,274.5C 675.558,271.286 679.224,270.953 683,273.5C 683.893,272.289 684.726,272.289 685.5,273.5C 684.092,274.243 682.759,275.077 681.5,276C 678.3,276.101 675.3,276.768 672.5,278C 674.569,278.324 674.902,279.158 673.5,280.5C 674.883,283.076 675.717,282.742 676,279.5C 677.6,280.866 679.433,281.866 681.5,282.5C 680.675,283.386 679.675,283.719 678.5,283.5C 678.5,284.5 678.5,285.5 678.5,286.5C 682.416,285.309 686.416,284.309 690.5,283.5C 691.442,283.608 692.275,283.941 693,284.5C 693.41,287.714 694.91,288.38 697.5,286.5C 700.341,288.479 703.341,290.312 706.5,292C 702.54,295.741 700.707,295.241 701,290.5C 697.972,292.729 696.138,295.729 695.5,299.5C 701.159,302.469 707.326,304.469 714,305.5C 716.634,305.066 719.134,304.233 721.5,303C 720.833,302.667 720.167,302.333 719.5,302C 722.516,301.78 725.016,300.613 727,298.5C 727.772,299.849 728.939,300.682 730.5,301C 728.017,301.287 725.35,301.954 722.5,303C 723.833,304 725.167,305 726.5,306C 729.556,305.911 732.89,305.244 736.5,304C 735.135,302.318 733.635,302.151 732,303.5C 732.594,301.518 733.76,299.684 735.5,298C 733.064,297.206 730.73,295.706 728.5,293.5C 722.316,296.772 715.816,297.772 709,296.5C 708.581,297.672 707.915,298.672 707,299.5C 705.578,299.406 704.078,299.072 702.5,298.5C 704.833,297.5 706.5,295.833 707.5,293.5C 712.103,292.342 716.77,291.509 721.5,291C 722.9,289.562 724.567,288.729 726.5,288.5C 726.222,290.346 726.889,291.68 728.5,292.5C 730.439,290.382 732.606,290.049 735,291.5C 735.953,289.545 737.287,287.878 739,286.5C 738.963,282.66 740.796,280.327 744.5,279.5C 748.664,280.902 752.664,282.569 756.5,284.5C 757.739,282.993 757.405,281.826 755.5,281C 756.956,276.435 758.956,272.268 761.5,268.5 Z"/></g>
<g><path style="opacity:1" fill="#00c3f3" d="M 330.5,293.5 C 320.077,302.378 310.077,311.712 300.5,321.5C 298.019,321.677 296.186,320.677 295,318.5C 294.667,319.167 294.333,319.833 294,320.5C 291.304,318.658 288.471,318.325 285.5,319.5C 286.986,321.302 287.986,323.302 288.5,325.5C 282.564,323.636 281.897,324.802 286.5,329C 285.838,330.332 284.672,331.498 283,332.5C 282.221,331.272 281.221,330.272 280,329.5C 277.994,330.88 275.994,332.214 274,333.5C 270.953,331.754 269.786,332.754 270.5,336.5C 267.133,336.543 263.799,336.21 260.5,335.5C 257.612,337.695 254.279,339.028 250.5,339.5C 249.575,338.359 248.741,338.359 248,339.5C 247.667,338.833 247.333,338.167 247,337.5C 242.781,339.909 238.281,341.743 233.5,343C 225.7,344.427 217.866,345.594 210,346.5C 206.718,345.995 203.551,345.995 200.5,346.5C 200.08,344.674 200.08,342.674 200.5,340.5C 203.137,335.216 206.137,330.216 209.5,325.5C 210.906,325.027 211.573,324.027 211.5,322.5C 212.906,322.027 213.573,321.027 213.5,319.5C 214.906,319.027 215.573,318.027 215.5,316.5C 216.906,316.027 217.573,315.027 217.5,313.5C 218.906,313.027 219.573,312.027 219.5,310.5C 221.262,309.738 222.262,308.404 222.5,306.5C 223.167,306.167 223.833,305.833 224.5,305.5C 224.351,306.552 224.517,307.552 225,308.5C 225.718,307.549 226.551,307.383 227.5,308C 226.426,310.97 227.593,312.803 231,313.5C 231.429,311.331 230.929,309.331 229.5,307.5C 229.833,307.167 230.167,306.833 230.5,306.5C 232.07,309.528 234.57,311.195 238,311.5C 239.394,309.612 241.227,308.279 243.5,307.5C 247.956,307.399 252.456,307.732 257,308.5C 259.262,304.68 262.429,303.68 266.5,305.5C 266.833,304.833 267.167,304.167 267.5,303.5C 268.641,305.421 268.808,307.421 268,309.5C 266.358,308.154 265.691,308.487 266,310.5C 267,311.167 268,311.833 269,312.5C 272.062,310.87 273.729,311.87 274,315.5C 276.421,310.763 275.254,307.263 270.5,305C 272.955,303.136 275.122,303.302 277,305.5C 277.334,301.345 279.334,300.011 283,301.5C 284.441,300.13 286.108,299.13 288,298.5C 290.58,297.318 293.413,297.318 296.5,298.5C 298.384,298.284 300.051,297.617 301.5,296.5C 300.939,298.066 301.606,299.399 303.5,300.5C 304.167,299.167 304.833,297.833 305.5,296.5C 306.833,297.5 308.167,298.5 309.5,299.5C 310.287,298.758 310.953,297.925 311.5,297C 310.259,295.513 310.759,294.68 313,294.5C 315.524,295.178 317.691,296.512 319.5,298.5C 319.529,297.166 320.363,295.833 322,294.5C 322.667,295.167 323.333,295.833 324,296.5C 325.746,294.543 327.912,293.543 330.5,293.5 Z"/></g>
<g><path style="opacity:1" fill="#00b7e8" d="M 773.5,281.5 C 783.708,292.256 792.708,303.922 800.5,316.5C 800.719,320.054 802.053,323.054 804.5,325.5C 803.167,326.833 803.167,328.167 804.5,329.5C 802.174,330.39 799.841,330.557 797.5,330C 797.833,330.333 798.167,330.667 798.5,331C 796.667,331.5 795.5,332.667 795,334.5C 789.448,333.804 783.948,333.804 778.5,334.5C 776.627,334.482 776.294,334.982 777.5,336C 777,336.5 776.5,337 776,337.5C 773.28,336.689 770.78,336.689 768.5,337.5C 768.167,338.167 767.833,338.833 767.5,339.5C 766.452,338.617 765.285,337.95 764,337.5C 761.138,338.453 758.471,339.787 756,341.5C 753.627,341.24 751.293,340.907 749,340.5C 746.279,341.559 744.612,343.559 744,346.5C 742.685,342.994 740.352,340.327 737,338.5C 736.667,338.833 736.333,339.167 736,339.5C 733.55,338.358 731.05,337.358 728.5,336.5C 722.245,327.908 715.245,319.908 707.5,312.5C 709.746,313.455 712.079,314.122 714.5,314.5C 714.351,313.448 714.517,312.448 715,311.5C 716.167,312.667 717.333,313.833 718.5,315C 718.167,315.333 717.833,315.667 717.5,316C 719.823,317.817 722.156,318.817 724.5,319C 724.167,319.333 723.833,319.667 723.5,320C 724.996,320.507 726.163,320.007 727,318.5C 727.674,319.578 728.674,320.245 730,320.5C 732.482,319.365 734.982,318.199 737.5,317C 740.833,316.333 744.167,316.333 747.5,317C 748,317.5 748.5,318 749,318.5C 749.49,317.207 749.657,315.873 749.5,314.5C 752.176,313.992 754.843,313.825 757.5,314C 757.381,315.281 757.881,316.448 759,317.5C 759.333,317.167 759.667,316.833 760,316.5C 761.194,317.43 762.527,318.097 764,318.5C 769.367,314.929 775.2,313.429 781.5,314C 779.715,312.837 777.715,312.17 775.5,312C 776.5,311.167 777.5,310.333 778.5,309.5C 775.956,308.574 773.456,307.574 771,306.5C 770.439,307.022 769.772,307.355 769,307.5C 767.667,306.833 766.333,306.167 765,305.5C 763.017,306.909 760.85,307.909 758.5,308.5C 757.155,307.653 756.155,306.487 755.5,305C 758.014,303.196 760.681,303.03 763.5,304.5C 765.662,302.98 767.995,301.98 770.5,301.5C 770.5,300.167 770.5,298.833 770.5,297.5C 772.201,297.034 773.701,297.034 775,297.5C 777.176,297.012 779.009,296.012 780.5,294.5C 779.183,294.687 777.85,294.02 776.5,292.5C 778.588,288.156 777.255,286.156 772.5,286.5C 772.366,284.708 772.699,283.042 773.5,281.5 Z"/></g>
<g><path style="opacity:0.529" fill="#012e50" d="M 224.5,303.5 C 224.5,304.167 224.5,304.833 224.5,305.5C 223.833,305.833 223.167,306.167 222.5,306.5C 222.427,304.973 223.094,303.973 224.5,303.5 Z"/></g>
<g><path style="opacity:0.612" fill="#012e53" d="M 222.5,306.5 C 222.262,308.404 221.262,309.738 219.5,310.5C 219.738,308.596 220.738,307.262 222.5,306.5 Z"/></g>
<g><path style="opacity:0.435" fill="#03142c" d="M 555.5,162.5 C 652.068,176.181 730.234,221.181 790,297.5C 806.655,319.802 820.488,343.802 831.5,369.5C 828.167,363.5 824.833,357.5 821.5,351.5C 815.754,338.997 808.754,327.33 800.5,316.5C 792.708,303.922 783.708,292.256 773.5,281.5C 770.208,276.54 766.208,272.207 761.5,268.5C 749.404,254.403 735.737,242.069 720.5,231.5C 674.26,196.394 622.26,174.394 564.5,165.5C 561.592,164.184 558.592,163.184 555.5,162.5 Z"/></g>
<g><path style="opacity:0.478" fill="#012849" d="M 219.5,310.5 C 219.573,312.027 218.906,313.027 217.5,313.5C 217.427,311.973 218.094,310.973 219.5,310.5 Z"/></g>
<g><path style="opacity:0.498" fill="#02395c" d="M 217.5,313.5 C 217.573,315.027 216.906,316.027 215.5,316.5C 215.427,314.973 216.094,313.973 217.5,313.5 Z"/></g>
<g><path style="opacity:0.486" fill="#02395d" d="M 215.5,316.5 C 215.573,318.027 214.906,319.027 213.5,319.5C 213.427,317.973 214.094,316.973 215.5,316.5 Z"/></g>
<g><path style="opacity:0.451" fill="#02395b" d="M 213.5,319.5 C 213.573,321.027 212.906,322.027 211.5,322.5C 211.427,320.973 212.094,319.973 213.5,319.5 Z"/></g>
<g><path style="opacity:0.388" fill="#023052" d="M 211.5,322.5 C 211.573,324.027 210.906,325.027 209.5,325.5C 209.427,323.973 210.094,322.973 211.5,322.5 Z"/></g>
<g><path style="opacity:1" fill="#00b1e2" d="M 800.5,316.5 C 808.754,327.33 815.754,338.997 821.5,351.5C 821.468,355.263 821.135,359.096 820.5,363C 823.479,364.612 824.812,367.112 824.5,370.5C 822.227,371.735 820.394,371.402 819,369.5C 818.517,370.448 818.351,371.448 818.5,372.5C 816.076,372.192 813.743,372.526 811.5,373.5C 812.506,374.396 812.506,375.062 811.5,375.5C 807.315,373.528 803.315,374.194 799.5,377.5C 798.284,376.998 797.117,376.665 796,376.5C 794.601,377.227 793.101,377.727 791.5,378C 790.638,380.734 789.805,380.901 789,378.5C 788.517,379.448 788.351,380.448 788.5,381.5C 792.172,382.045 791.838,382.378 787.5,382.5C 787.688,380.897 787.188,379.563 786,378.5C 785.316,379.784 785.483,380.951 786.5,382C 784.821,382.395 783.155,382.228 781.5,381.5C 780.833,381.667 780.167,381.833 779.5,382C 780.696,382.654 780.696,383.154 779.5,383.5C 774.137,382.772 768.804,382.105 763.5,381.5C 764.276,379.644 765.609,378.311 767.5,377.5C 766.469,376.3 765.635,374.966 765,373.5C 764.995,376.229 763.829,378.229 761.5,379.5C 762.326,380.451 762.492,381.451 762,382.5C 760.989,381.663 759.822,381.33 758.5,381.5C 749.318,365.979 739.318,350.979 728.5,336.5C 731.05,337.358 733.55,338.358 736,339.5C 736.333,339.167 736.667,338.833 737,338.5C 740.352,340.327 742.685,342.994 744,346.5C 744.612,343.559 746.279,341.559 749,340.5C 751.293,340.907 753.627,341.24 756,341.5C 758.471,339.787 761.138,338.453 764,337.5C 765.285,337.95 766.452,338.617 767.5,339.5C 767.833,338.833 768.167,338.167 768.5,337.5C 770.78,336.689 773.28,336.689 776,337.5C 776.5,337 777,336.5 777.5,336C 776.294,334.982 776.627,334.482 778.5,334.5C 783.948,333.804 789.448,333.804 795,334.5C 795.5,332.667 796.667,331.5 798.5,331C 798.167,330.667 797.833,330.333 797.5,330C 799.841,330.557 802.174,330.39 804.5,329.5C 803.167,328.167 803.167,326.833 804.5,325.5C 802.053,323.054 800.719,320.054 800.5,316.5 Z"/></g>
<g><path style="opacity:1" fill="#00bcec" d="M 300.5,321.5 C 288.762,335.331 277.762,349.665 267.5,364.5C 265.549,364.773 264.049,364.107 263,362.5C 260.412,365.287 257.745,365.62 255,363.5C 253.829,364.893 252.329,365.727 250.5,366C 246.833,366.333 243.167,366.667 239.5,367C 236.868,369.066 236.201,371.566 237.5,374.5C 236.675,375.386 235.675,375.719 234.5,375.5C 234.5,376.5 234.5,377.5 234.5,378.5C 232.723,378.214 231.056,377.547 229.5,376.5C 227.964,377.249 226.631,378.249 225.5,379.5C 219.687,378.587 213.854,377.921 208,377.5C 205.33,378.224 203.83,379.891 203.5,382.5C 199.228,381.602 194.895,381.936 190.5,383.5C 188.603,383.272 187.27,382.272 186.5,380.5C 184.134,381.984 182.801,381.317 182.5,378.5C 187.445,365.28 193.445,352.613 200.5,340.5C 200.08,342.674 200.08,344.674 200.5,346.5C 203.551,345.995 206.718,345.995 210,346.5C 217.866,345.594 225.7,344.427 233.5,343C 238.281,341.743 242.781,339.909 247,337.5C 247.333,338.167 247.667,338.833 248,339.5C 248.741,338.359 249.575,338.359 250.5,339.5C 254.279,339.028 257.612,337.695 260.5,335.5C 263.799,336.21 267.133,336.543 270.5,336.5C 269.786,332.754 270.953,331.754 274,333.5C 275.994,332.214 277.994,330.88 280,329.5C 281.221,330.272 282.221,331.272 283,332.5C 284.672,331.498 285.838,330.332 286.5,329C 281.897,324.802 282.564,323.636 288.5,325.5C 287.986,323.302 286.986,321.302 285.5,319.5C 288.471,318.325 291.304,318.658 294,320.5C 294.333,319.833 294.667,319.167 295,318.5C 296.186,320.677 298.019,321.677 300.5,321.5 Z"/></g>
<g><path style="opacity:1" fill="#00b7e7" d="M 267.5,364.5 C 265.89,368.1 263.89,371.434 261.5,374.5C 260.791,373.596 259.791,373.263 258.5,373.5C 257.671,377.564 256.671,381.564 255.5,385.5C 254.128,389.249 252.461,392.915 250.5,396.5C 249.685,395.571 248.852,394.571 248,393.5C 245.54,394.755 244.373,396.755 244.5,399.5C 242.162,398.563 239.995,397.23 238,395.5C 236.72,395.613 235.887,396.28 235.5,397.5C 238.669,399.413 240.336,401.913 240.5,405C 228.542,407.157 216.709,407.657 205,406.5C 200.04,408.426 194.874,409.593 189.5,410C 188.747,411.487 187.914,411.654 187,410.5C 186.667,411.5 186.333,412.5 186,413.5C 183.932,411.438 181.432,410.272 178.5,410C 179.61,407.263 179.777,404.429 179,401.5C 178.333,402.833 177.667,402.833 177,401.5C 175.148,403.23 175.314,404.396 177.5,405C 176.809,406.067 176.309,407.234 176,408.5C 174.984,407.366 174.317,407.699 174,409.5C 173.487,408.473 172.987,407.473 172.5,406.5C 174.868,396.724 178.201,387.39 182.5,378.5C 182.801,381.317 184.134,381.984 186.5,380.5C 187.27,382.272 188.603,383.272 190.5,383.5C 194.895,381.936 199.228,381.602 203.5,382.5C 203.83,379.891 205.33,378.224 208,377.5C 213.854,377.921 219.687,378.587 225.5,379.5C 226.631,378.249 227.964,377.249 229.5,376.5C 231.056,377.547 232.723,378.214 234.5,378.5C 234.5,377.5 234.5,376.5 234.5,375.5C 235.675,375.719 236.675,375.386 237.5,374.5C 236.201,371.566 236.868,369.066 239.5,367C 243.167,366.667 246.833,366.333 250.5,366C 252.329,365.727 253.829,364.893 255,363.5C 257.745,365.62 260.412,365.287 263,362.5C 264.049,364.107 265.549,364.773 267.5,364.5 Z"/></g>
<g><path style="opacity:1" fill="#00a7d8" d="M 821.5,351.5 C 824.833,357.5 828.167,363.5 831.5,369.5C 831.707,372.241 832.707,374.574 834.5,376.5C 834.402,378.553 835.069,380.22 836.5,381.5C 837.931,382.78 838.598,384.447 838.5,386.5C 838.402,388.553 839.069,390.22 840.5,391.5C 840.132,395.044 841.132,398.044 843.5,400.5C 839.217,401.827 834.551,402.493 829.5,402.5C 808.827,402.028 788.16,401.361 767.5,400.5C 764.216,394.266 761.216,387.933 758.5,381.5C 759.822,381.33 760.989,381.663 762,382.5C 762.492,381.451 762.326,380.451 761.5,379.5C 763.829,378.229 764.995,376.229 765,373.5C 765.635,374.966 766.469,376.3 767.5,377.5C 765.609,378.311 764.276,379.644 763.5,381.5C 768.804,382.105 774.137,382.772 779.5,383.5C 780.696,383.154 780.696,382.654 779.5,382C 780.167,381.833 780.833,381.667 781.5,381.5C 783.155,382.228 784.821,382.395 786.5,382C 785.483,380.951 785.316,379.784 786,378.5C 787.188,379.563 787.688,380.897 787.5,382.5C 791.838,382.378 792.172,382.045 788.5,381.5C 788.351,380.448 788.517,379.448 789,378.5C 789.805,380.901 790.638,380.734 791.5,378C 793.101,377.727 794.601,377.227 796,376.5C 797.117,376.665 798.284,376.998 799.5,377.5C 803.315,374.194 807.315,373.528 811.5,375.5C 812.506,375.062 812.506,374.396 811.5,373.5C 813.743,372.526 816.076,372.192 818.5,372.5C 818.351,371.448 818.517,370.448 819,369.5C 820.394,371.402 822.227,371.735 824.5,370.5C 824.812,367.112 823.479,364.612 820.5,363C 821.135,359.096 821.468,355.263 821.5,351.5 Z"/></g>
<g><path style="opacity:0.463" fill="#03162c" d="M 831.5,369.5 C 833.293,371.426 834.293,373.759 834.5,376.5C 832.707,374.574 831.707,372.241 831.5,369.5 Z"/></g>
<g><path style="opacity:1" fill="#048fb7" d="M 261.5,374.5 C 260.258,378.655 258.258,382.322 255.5,385.5C 256.671,381.564 257.671,377.564 258.5,373.5C 259.791,373.263 260.791,373.596 261.5,374.5 Z"/></g>
<g><path style="opacity:0.529" fill="#021630" d="M 834.5,376.5 C 835.931,377.78 836.598,379.447 836.5,381.5C 835.069,380.22 834.402,378.553 834.5,376.5 Z"/></g>
<g><path style="opacity:0.302" fill="#011734" d="M 838.5,386.5 C 839.931,387.78 840.598,389.447 840.5,391.5C 839.069,390.22 838.402,388.553 838.5,386.5 Z"/></g>
<g><path style="opacity:1" fill="#044b70" d="M 840.5,391.5 C 842.072,394.215 843.072,397.215 843.5,400.5C 841.132,398.044 840.132,395.044 840.5,391.5 Z"/></g>
<g><path style="opacity:1" fill="#00b0e1" d="M 250.5,396.5 C 244.505,410.484 239.505,424.818 235.5,439.5C 233.166,441.176 232.166,443.509 232.5,446.5C 231.209,446.263 230.209,446.596 229.5,447.5C 227.97,449.877 226.47,449.877 225,447.5C 224.667,447.833 224.333,448.167 224,448.5C 224.629,451.484 224.463,454.484 223.5,457.5C 222.452,456.617 221.285,455.95 220,455.5C 217.999,456.723 217.165,458.223 217.5,460C 216.101,460.595 214.768,460.428 213.5,459.5C 210.094,462.059 206.76,462.059 203.5,459.5C 202.494,459.938 202.494,460.604 203.5,461.5C 202.147,462.685 200.98,464.019 200,465.5C 199.411,463.137 197.911,462.137 195.5,462.5C 195.881,460.058 195.214,459.391 193.5,460.5C 192.833,459.833 192.167,459.167 191.5,458.5C 190.948,460.003 190.948,461.669 191.5,463.5C 189.011,463.702 186.677,463.202 184.5,462C 183.289,460.887 183.289,459.72 184.5,458.5C 183.23,456.572 181.563,455.239 179.5,454.5C 178.353,454.818 177.519,455.484 177,456.5C 176.692,455.692 176.192,455.025 175.5,454.5C 173.958,455.747 172.458,455.747 171,454.5C 169.374,457.066 167.874,456.899 166.5,454C 167.337,452.989 167.67,451.822 167.5,450.5C 166.209,450.263 165.209,450.596 164.5,451.5C 163.521,448.375 163.187,445.042 163.5,441.5C 165.428,429.451 168.428,417.785 172.5,406.5C 172.987,407.473 173.487,408.473 174,409.5C 174.317,407.699 174.984,407.366 176,408.5C 176.309,407.234 176.809,406.067 177.5,405C 175.314,404.396 175.148,403.23 177,401.5C 177.667,402.833 178.333,402.833 179,401.5C 179.777,404.429 179.61,407.263 178.5,410C 181.432,410.272 183.932,411.438 186,413.5C 186.333,412.5 186.667,411.5 187,410.5C 187.914,411.654 188.747,411.487 189.5,410C 194.874,409.593 200.04,408.426 205,406.5C 216.709,407.657 228.542,407.157 240.5,405C 240.336,401.913 238.669,399.413 235.5,397.5C 235.887,396.28 236.72,395.613 238,395.5C 239.995,397.23 242.162,398.563 244.5,399.5C 244.373,396.755 245.54,394.755 248,393.5C 248.852,394.571 249.685,395.571 250.5,396.5 Z"/></g>
<g><path style="opacity:1" fill="#028bb5" d="M 235.5,439.5 C 233.378,449.26 231.378,458.927 229.5,468.5C 228.582,461.204 228.582,454.204 229.5,447.5C 230.209,446.596 231.209,446.263 232.5,446.5C 232.166,443.509 233.166,441.176 235.5,439.5 Z"/></g>
<g><path style="opacity:1" fill="#0283ad" d="M 163.5,441.5 C 163.187,445.042 163.521,448.375 164.5,451.5C 163.874,452.529 163.041,453.529 162,454.5C 161.809,456.708 161.309,458.708 160.5,460.5C 160.5,459.833 160.5,459.167 160.5,458.5C 160.764,452.578 161.764,446.911 163.5,441.5 Z"/></g>
<g><path style="opacity:1" fill="#00aadb" d="M 229.5,447.5 C 228.582,454.204 228.582,461.204 229.5,468.5C 229.161,475.247 228.494,481.914 227.5,488.5C 226.675,492.647 226.175,496.981 226,501.5C 225.879,499.273 225.046,497.44 223.5,496C 225.662,493.478 225.995,490.645 224.5,487.5C 221.897,488.562 219.23,488.728 216.5,488C 215.167,487.333 215.167,486.667 216.5,486C 215.448,484.881 214.281,484.381 213,484.5C 212.686,487.348 211.52,490.181 209.5,493C 210.333,495.081 210.333,497.248 209.5,499.5C 197.612,502.706 185.279,504.206 172.5,504C 171.167,503.667 169.833,503.333 168.5,503C 169.428,502.612 170.095,501.945 170.5,501C 170.108,499.989 169.441,499.489 168.5,499.5C 169.833,498.38 170.333,497.047 170,495.5C 168.817,496.731 167.651,496.731 166.5,495.5C 165.239,492.329 163.239,490.829 160.5,491C 161.654,490.086 161.487,489.253 160,488.5C 159.817,491.365 159.317,494.031 158.5,496.5C 158.5,491.5 158.5,486.5 158.5,481.5C 159.084,474.492 159.751,467.492 160.5,460.5C 161.309,458.708 161.809,456.708 162,454.5C 163.041,453.529 163.874,452.529 164.5,451.5C 165.209,450.596 166.209,450.263 167.5,450.5C 167.67,451.822 167.337,452.989 166.5,454C 167.874,456.899 169.374,457.066 171,454.5C 172.458,455.747 173.958,455.747 175.5,454.5C 176.192,455.025 176.692,455.692 177,456.5C 177.519,455.484 178.353,454.818 179.5,454.5C 181.563,455.239 183.23,456.572 184.5,458.5C 183.289,459.72 183.289,460.887 184.5,462C 186.677,463.202 189.011,463.702 191.5,463.5C 190.948,461.669 190.948,460.003 191.5,458.5C 192.167,459.167 192.833,459.833 193.5,460.5C 195.214,459.391 195.881,460.058 195.5,462.5C 197.911,462.137 199.411,463.137 200,465.5C 200.98,464.019 202.147,462.685 203.5,461.5C 202.494,460.604 202.494,459.938 203.5,459.5C 206.76,462.059 210.094,462.059 213.5,459.5C 214.768,460.428 216.101,460.595 217.5,460C 217.165,458.223 217.999,456.723 220,455.5C 221.285,455.95 222.452,456.617 223.5,457.5C 224.463,454.484 224.629,451.484 224,448.5C 224.333,448.167 224.667,447.833 225,447.5C 226.47,449.877 227.97,449.877 229.5,447.5 Z"/></g>
<g><path style="opacity:0.935" fill="#f2f4f6" d="M 472.5,454.5 C 478.5,454.5 484.5,454.5 490.5,454.5C 490.333,466.505 490.5,478.505 491,490.5C 493.264,487.567 496.098,485.4 499.5,484C 506.433,482.494 513.433,482.161 520.5,483C 530.553,485.72 536.387,492.22 538,502.5C 538.5,517.83 538.667,533.163 538.5,548.5C 532.5,548.5 526.5,548.5 520.5,548.5C 520.929,534.441 520.429,520.441 519,506.5C 512.727,497.646 504.894,496.146 495.5,502C 493.959,503.579 492.792,505.413 492,507.5C 490.573,521.107 490.073,534.774 490.5,548.5C 484.5,548.5 478.5,548.5 472.5,548.5C 472.5,517.167 472.5,485.833 472.5,454.5 Z"/></g>
<g><path style="opacity:0.904" fill="#f2f4f6" d="M 557.5,454.5 C 568.988,452.496 574.155,457.162 573,468.5C 566.983,476.567 560.316,477.234 553,470.5C 550.179,463.811 551.679,458.478 557.5,454.5 Z"/></g>
<g><path style="opacity:0.935" fill="#f2f4f6" d="M 801.5,454.5 C 807.5,454.5 813.5,454.5 819.5,454.5C 819.333,466.505 819.5,478.505 820,490.5C 822.264,487.567 825.098,485.4 828.5,484C 835.433,482.494 842.433,482.161 849.5,483C 859.553,485.72 865.387,492.22 867,502.5C 867.5,517.83 867.667,533.163 867.5,548.5C 861.5,548.5 855.5,548.5 849.5,548.5C 849.929,534.441 849.429,520.441 848,506.5C 841.727,497.646 833.894,496.146 824.5,502C 822.959,503.579 821.792,505.413 821,507.5C 819.573,521.107 819.073,534.774 819.5,548.5C 813.5,548.5 807.5,548.5 801.5,548.5C 801.5,517.167 801.5,485.833 801.5,454.5 Z"/></g>
<g><path style="opacity:0.486" fill="#858796" d="M 307.5,456.5 C 294.087,456.186 280.754,456.519 267.5,457.5C 273.798,456.17 280.465,455.503 287.5,455.5C 294.342,455.5 301.009,455.834 307.5,456.5 Z"/></g>
<g><path style="opacity:1" fill="#f2f3f5" d="M 307.5,456.5 C 308.281,476.496 308.447,496.496 308,516.5C 307.835,523.153 306.001,529.153 302.5,534.5C 300.876,534.36 299.71,535.027 299,536.5C 298.667,536.167 298.333,535.833 298,535.5C 296.86,537.078 296.36,538.744 296.5,540.5C 294.533,539.318 293.2,539.985 292.5,542.5C 290.997,541.948 289.331,541.948 287.5,542.5C 287.5,543.833 287.5,545.167 287.5,546.5C 285.801,546.34 284.134,546.506 282.5,547C 282.833,547.333 283.167,547.667 283.5,548C 282.584,548.278 281.918,548.778 281.5,549.5C 268.782,552.561 258.115,549.228 249.5,539.5C 252.099,534.572 255.432,530.239 259.5,526.5C 268.027,534.458 276.36,534.458 284.5,526.5C 287.972,525.742 289.972,523.575 290.5,520C 288.524,504.407 287.858,488.574 288.5,472.5C 281.167,472.5 273.833,472.5 266.5,472.5C 266.413,467.463 266.746,462.463 267.5,457.5C 280.754,456.519 294.087,456.186 307.5,456.5 Z"/></g>
<g><path style="opacity:0.943" fill="#f2f4f6" d="M 582.5,457.5 C 609.167,457.5 635.833,457.5 662.5,457.5C 662.5,463.167 662.5,468.833 662.5,474.5C 652.5,474.5 642.5,474.5 632.5,474.5C 632.5,499.167 632.5,523.833 632.5,548.5C 626.167,548.5 619.833,548.5 613.5,548.5C 613.5,523.833 613.5,499.167 613.5,474.5C 603.167,474.5 592.833,474.5 582.5,474.5C 582.5,468.833 582.5,463.167 582.5,457.5 Z"/></g>
<g><path style="opacity:0.933" fill="#03426b" d="M 160.5,458.5 C 160.5,459.167 160.5,459.833 160.5,460.5C 159.751,467.492 159.084,474.492 158.5,481.5C 158.167,481.5 157.833,481.5 157.5,481.5C 157.778,473.604 158.778,465.937 160.5,458.5 Z"/></g>
<g><path style="opacity:0.938" fill="#f2f4f6" d="M 429.5,482.5 C 437.174,482.334 444.841,482.5 452.5,483C 454.218,483.346 455.885,483.846 457.5,484.5C 458.494,489.456 458.827,494.456 458.5,499.5C 449.798,498.042 441.131,498.208 432.5,500C 425.29,502.569 421.623,507.735 421.5,515.5C 421.623,523.265 425.29,528.431 432.5,531C 441.134,532.831 449.801,532.998 458.5,531.5C 458.666,536.511 458.499,541.511 458,546.5C 452.662,548.039 447.162,548.706 441.5,548.5C 422.808,549.946 410.308,541.946 404,524.5C 400.442,502.941 408.942,488.941 429.5,482.5 Z"/></g>
<g><path style="opacity:0.932" fill="#f2f4f6" d="M 681.5,482.5 C 710.943,479.609 724.61,492.943 722.5,522.5C 707.167,522.5 691.833,522.5 676.5,522.5C 677.679,528.511 681.346,532.011 687.5,533C 697.534,533.758 707.534,533.591 717.5,532.5C 717.5,537.167 717.5,541.833 717.5,546.5C 706.257,548.458 694.924,548.958 683.5,548C 662.008,542.45 653.508,528.617 658,506.5C 661.349,493.985 669.182,485.985 681.5,482.5 Z M 684.5,497.5 C 694.665,495.196 701.331,498.862 704.5,508.5C 694.851,509.665 685.184,509.832 675.5,509C 677.222,504.117 680.222,500.284 684.5,497.5 Z"/></g>
<g><path style="opacity:0.938" fill="#f2f4f6" d="M 758.5,482.5 C 766.174,482.334 773.841,482.5 781.5,483C 783.218,483.346 784.885,483.846 786.5,484.5C 787.494,489.456 787.827,494.456 787.5,499.5C 778.798,498.042 770.131,498.208 761.5,500C 754.29,502.569 750.623,507.735 750.5,515.5C 750.623,523.265 754.29,528.431 761.5,531C 770.134,532.831 778.801,532.998 787.5,531.5C 787.666,536.511 787.499,541.511 787,546.5C 781.662,548.039 776.162,548.706 770.5,548.5C 751.808,549.946 739.308,541.946 733,524.5C 729.442,502.941 737.942,488.941 758.5,482.5 Z"/></g>
<g><path style="opacity:0.943" fill="#f2f4f6" d="M 324.5,483.5 C 330.5,483.5 336.5,483.5 342.5,483.5C 342.333,496.504 342.5,509.504 343,522.5C 344.831,529.341 349.331,532.674 356.5,532.5C 364.083,532.413 368.916,528.746 371,521.5C 371.5,508.838 371.667,496.171 371.5,483.5C 377.5,483.5 383.5,483.5 389.5,483.5C 389.5,505.167 389.5,526.833 389.5,548.5C 383.833,548.5 378.167,548.5 372.5,548.5C 372.852,545.927 372.352,543.594 371,541.5C 365.252,546.916 358.418,549.25 350.5,548.5C 337.159,549.322 328.659,543.322 325,530.5C 324.5,514.837 324.333,499.17 324.5,483.5 Z"/></g>
<g><path style="opacity:0.934" fill="#f2f4f6" d="M 553.5,483.5 C 559.5,483.5 565.5,483.5 571.5,483.5C 571.5,505.167 571.5,526.833 571.5,548.5C 565.5,548.5 559.5,548.5 553.5,548.5C 553.5,526.833 553.5,505.167 553.5,483.5 Z"/></g>
<g><path style="opacity:0.759" fill="#b5bac5" d="M 266.5,472.5 C 273.833,472.5 281.167,472.5 288.5,472.5C 287.858,488.574 288.524,504.407 290.5,520C 289.972,523.575 287.972,525.742 284.5,526.5C 285.772,523.652 286.605,520.652 287,517.5C 287.5,502.837 287.667,488.17 287.5,473.5C 280.313,473.825 273.313,473.491 266.5,472.5 Z"/></g>
<g><path style="opacity:1" fill="#00a1d5" d="M 227.5,488.5 C 227.822,494.358 227.489,500.025 226.5,505.5C 225.677,508.977 225.177,512.644 225,516.5C 223.853,517.458 222.853,517.125 222,515.5C 221.5,516.5 221,517.5 220.5,518.5C 221.833,518.833 223.167,519.167 224.5,519.5C 223.624,520.251 222.624,520.751 221.5,521C 223.324,523.152 223.657,525.652 222.5,528.5C 219.135,528.046 215.802,527.38 212.5,526.5C 207.1,529.878 201.433,530.878 195.5,529.5C 195.649,530.552 195.483,531.552 195,532.5C 193.223,532.165 191.723,532.999 190.5,535C 190.833,535.5 191.167,536 191.5,536.5C 195.106,534.923 198.606,533.923 202,533.5C 203.57,534.358 205.237,535.025 207,535.5C 208.136,534.217 209.469,533.217 211,532.5C 212.677,533.163 214.51,533.163 216.5,532.5C 217.5,532.667 218.5,532.833 219.5,533C 217.771,534.789 217.104,536.956 217.5,539.5C 219.124,539.64 220.29,538.973 221,537.5C 223,539.5 223,541.5 221,543.5C 220.751,542.376 220.251,541.376 219.5,540.5C 218.148,541.896 216.481,542.563 214.5,542.5C 211.727,541.428 208.893,540.428 206,539.5C 202.855,542.201 199.689,542.535 196.5,540.5C 195.194,541.912 194.36,543.579 194,545.5C 193.667,545.167 193.333,544.833 193,544.5C 191.117,546.409 189.617,548.575 188.5,551C 183.635,551.543 178.968,551.376 174.5,550.5C 172.831,551.671 171.331,553.004 170,554.5C 169.5,554.167 169,553.833 168.5,553.5C 169.681,551.802 169.681,550.135 168.5,548.5C 167.749,549.376 167.249,550.376 167,551.5C 165.981,549.731 165.814,548.064 166.5,546.5C 161.893,540.712 162.726,538.379 169,539.5C 169.5,539 170,538.5 170.5,538C 168.757,536.89 167.424,535.39 166.5,533.5C 165.24,536.109 164.24,535.943 163.5,533C 164.237,530.201 165.07,530.034 166,532.5C 166.333,531.833 166.667,531.167 167,530.5C 168.608,531.433 169.441,530.767 169.5,528.5C 169.182,527.353 168.516,526.519 167.5,526C 169.301,525.683 169.634,525.016 168.5,524C 169.46,522.581 170.293,521.081 171,519.5C 172.073,520.28 173.24,520.113 174.5,519C 173.167,517.667 173.167,516.333 174.5,515C 172.608,514.027 170.608,513.36 168.5,513C 170.689,512.323 171.022,511.156 169.5,509.5C 166.97,508.868 164.637,507.868 162.5,506.5C 161.889,509.427 160.556,511.76 158.5,513.5C 158.5,507.833 158.5,502.167 158.5,496.5C 159.317,494.031 159.817,491.365 160,488.5C 161.487,489.253 161.654,490.086 160.5,491C 163.239,490.829 165.239,492.329 166.5,495.5C 167.651,496.731 168.817,496.731 170,495.5C 170.333,497.047 169.833,498.38 168.5,499.5C 169.441,499.489 170.108,499.989 170.5,501C 170.095,501.945 169.428,502.612 168.5,503C 169.833,503.333 171.167,503.667 172.5,504C 185.279,504.206 197.612,502.706 209.5,499.5C 210.333,497.248 210.333,495.081 209.5,493C 211.52,490.181 212.686,487.348 213,484.5C 214.281,484.381 215.448,484.881 216.5,486C 215.167,486.667 215.167,487.333 216.5,488C 219.23,488.728 221.897,488.562 224.5,487.5C 225.995,490.645 225.662,493.478 223.5,496C 225.046,497.44 225.879,499.273 226,501.5C 226.175,496.981 226.675,492.647 227.5,488.5 Z"/></g>
<g><path style="opacity:1" fill="#007eaa" d="M 157.5,481.5 C 157.833,481.5 158.167,481.5 158.5,481.5C 158.5,486.5 158.5,491.5 158.5,496.5C 158.5,502.167 158.5,507.833 158.5,513.5C 158.612,521.844 158.945,530.178 159.5,538.5C 158.681,535.695 158.181,532.695 158,529.5C 157.5,514.504 157.333,499.504 157.5,484.5C 157.5,483.5 157.5,482.5 157.5,481.5 Z"/></g>
<g><path style="opacity:1" fill="#009dd1" d="M 226.5,505.5 C 226.959,519.844 227.626,534.177 228.5,548.5C 228.643,555.266 229.31,561.933 230.5,568.5C 229.897,570.19 228.897,571.69 227.5,573C 228.816,574.978 228.316,576.478 226,577.5C 223.519,576.851 223.186,575.851 225,574.5C 225.568,571.779 225.901,569.112 226,566.5C 224.008,569.99 221.174,572.657 217.5,574.5C 215.774,572.97 213.774,571.97 211.5,571.5C 207.203,573.987 202.703,575.987 198,577.5C 197.586,577.043 197.086,576.709 196.5,576.5C 195.673,578.162 194.507,579.495 193,580.5C 192.667,580.167 192.333,579.833 192,579.5C 187.737,582.56 184.404,581.894 182,577.5C 181.259,578.641 180.425,578.641 179.5,577.5C 178.667,578.5 177.833,579.5 177,580.5C 175.992,580.018 174.825,579.852 173.5,580C 171.955,577.915 171.622,575.748 172.5,573.5C 171.372,572.738 170.205,572.071 169,571.5C 167.871,574.473 167.037,577.473 166.5,580.5C 165.833,580.5 165.167,580.5 164.5,580.5C 161.154,566.735 159.487,552.735 159.5,538.5C 158.945,530.178 158.612,521.844 158.5,513.5C 160.556,511.76 161.889,509.427 162.5,506.5C 164.637,507.868 166.97,508.868 169.5,509.5C 171.022,511.156 170.689,512.323 168.5,513C 170.608,513.36 172.608,514.027 174.5,515C 173.167,516.333 173.167,517.667 174.5,519C 173.24,520.113 172.073,520.28 171,519.5C 170.293,521.081 169.46,522.581 168.5,524C 169.634,525.016 169.301,525.683 167.5,526C 168.516,526.519 169.182,527.353 169.5,528.5C 169.441,530.767 168.608,531.433 167,530.5C 166.667,531.167 166.333,531.833 166,532.5C 165.07,530.034 164.237,530.201 163.5,533C 164.24,535.943 165.24,536.109 166.5,533.5C 167.424,535.39 168.757,536.89 170.5,538C 170,538.5 169.5,539 169,539.5C 162.726,538.379 161.893,540.712 166.5,546.5C 165.814,548.064 165.981,549.731 167,551.5C 167.249,550.376 167.749,549.376 168.5,548.5C 169.681,550.135 169.681,551.802 168.5,553.5C 169,553.833 169.5,554.167 170,554.5C 171.331,553.004 172.831,551.671 174.5,550.5C 178.968,551.376 183.635,551.543 188.5,551C 189.617,548.575 191.117,546.409 193,544.5C 193.333,544.833 193.667,545.167 194,545.5C 194.36,543.579 195.194,541.912 196.5,540.5C 199.689,542.535 202.855,542.201 206,539.5C 208.893,540.428 211.727,541.428 214.5,542.5C 216.481,542.563 218.148,541.896 219.5,540.5C 220.251,541.376 220.751,542.376 221,543.5C 223,541.5 223,539.5 221,537.5C 220.29,538.973 219.124,539.64 217.5,539.5C 217.104,536.956 217.771,534.789 219.5,533C 218.5,532.833 217.5,532.667 216.5,532.5C 214.51,533.163 212.677,533.163 211,532.5C 209.469,533.217 208.136,534.217 207,535.5C 205.237,535.025 203.57,534.358 202,533.5C 198.606,533.923 195.106,534.923 191.5,536.5C 191.167,536 190.833,535.5 190.5,535C 191.723,532.999 193.223,532.165 195,532.5C 195.483,531.552 195.649,530.552 195.5,529.5C 201.433,530.878 207.1,529.878 212.5,526.5C 215.802,527.38 219.135,528.046 222.5,528.5C 223.657,525.652 223.324,523.152 221.5,521C 222.624,520.751 223.624,520.251 224.5,519.5C 223.167,519.167 221.833,518.833 220.5,518.5C 221,517.5 221.5,516.5 222,515.5C 222.853,517.125 223.853,517.458 225,516.5C 225.177,512.644 225.677,508.977 226.5,505.5 Z"/></g>
<g><path style="opacity:1" fill="#d6d5db" d="M 302.5,534.5 C 298.078,542.896 291.078,547.896 281.5,549.5C 281.918,548.778 282.584,548.278 283.5,548C 283.167,547.667 282.833,547.333 282.5,547C 284.134,546.506 285.801,546.34 287.5,546.5C 287.5,545.167 287.5,543.833 287.5,542.5C 289.331,541.948 290.997,541.948 292.5,542.5C 293.2,539.985 294.533,539.318 296.5,540.5C 296.36,538.744 296.86,537.078 298,535.5C 298.333,535.833 298.667,536.167 299,536.5C 299.71,535.027 300.876,534.36 302.5,534.5 Z"/></g>
<g><path style="opacity:1" fill="#009ad1" d="M 230.5,568.5 C 231.346,573.108 231.513,577.775 231,582.5C 231.359,579.456 232.026,579.122 233,581.5C 234.512,585.371 235.345,589.371 235.5,593.5C 233.641,593.539 232.308,592.706 231.5,591C 229.479,590.86 227.645,590.693 226,590.5C 225.833,590.833 225.667,591.167 225.5,591.5C 226.981,592.48 228.315,593.647 229.5,595C 228.333,595.5 227.5,596.333 227,597.5C 226.667,597.167 226.333,596.833 226,596.5C 221.634,597.773 217.301,599.106 213,600.5C 212.692,599.692 212.192,599.025 211.5,598.5C 210.28,599.711 209.113,599.711 208,598.5C 207.751,599.624 207.251,600.624 206.5,601.5C 204.329,601.273 202.162,600.94 200,600.5C 197.891,601.035 197.391,602.035 198.5,603.5C 196.614,604.406 194.78,605.406 193,606.5C 192.667,606.167 192.333,605.833 192,605.5C 190.167,606.667 188.333,607.833 186.5,609C 185.884,611.179 184.717,613.012 183,614.5C 182.5,613.5 182,612.5 181.5,611.5C 181.407,607.919 181.74,604.252 182.5,600.5C 178.114,599.097 174.614,600.43 172,604.5C 173.04,600.645 172.54,596.978 170.5,593.5C 171.891,591.064 171.391,590.398 169,591.5C 167.739,587.938 166.906,584.271 166.5,580.5C 167.037,577.473 167.871,574.473 169,571.5C 170.205,572.071 171.372,572.738 172.5,573.5C 171.622,575.748 171.955,577.915 173.5,580C 174.825,579.852 175.992,580.018 177,580.5C 177.833,579.5 178.667,578.5 179.5,577.5C 180.425,578.641 181.259,578.641 182,577.5C 184.404,581.894 187.737,582.56 192,579.5C 192.333,579.833 192.667,580.167 193,580.5C 194.507,579.495 195.673,578.162 196.5,576.5C 197.086,576.709 197.586,577.043 198,577.5C 202.703,575.987 207.203,573.987 211.5,571.5C 213.774,571.97 215.774,572.97 217.5,574.5C 221.174,572.657 224.008,569.99 226,566.5C 225.901,569.112 225.568,571.779 225,574.5C 223.186,575.851 223.519,576.851 226,577.5C 228.316,576.478 228.816,574.978 227.5,573C 228.897,571.69 229.897,570.19 230.5,568.5 Z"/></g>
<g><path style="opacity:0.888" fill="#f2f4f6" d="M 483.5,569.5 C 488.833,569.5 494.167,569.5 499.5,569.5C 499.662,571.527 499.495,573.527 499,575.5C 494.921,574.371 490.755,574.204 486.5,575C 483.85,577.082 484.184,578.749 487.5,580C 492.003,580.068 496.17,581.235 500,583.5C 502,587.167 502,590.833 500,594.5C 498.829,595.893 497.329,596.727 495.5,597C 489.843,597.499 484.176,597.666 478.5,597.5C 478.338,595.473 478.505,593.473 479,591.5C 483.413,592.632 487.913,592.799 492.5,592C 495.443,590.541 495.776,588.874 493.5,587C 489.814,586.441 486.147,585.774 482.5,585C 475.68,579.426 476.013,574.259 483.5,569.5 Z"/></g>
<g><path style="opacity:0.864" fill="#f2f4f6" d="M 514.5,569.5 C 530.424,568.044 536.59,575.044 533,590.5C 531.437,593.728 528.937,595.895 525.5,597C 509.886,599.386 503.386,592.886 506,577.5C 507.773,573.56 510.606,570.893 514.5,569.5 Z M 516.5,574.5 C 525.649,574.156 529.149,578.49 527,587.5C 524.774,591.861 521.274,593.361 516.5,592C 511.845,589.103 510.345,584.937 512,579.5C 513.025,577.313 514.525,575.646 516.5,574.5 Z"/></g>
<g><path style="opacity:0.932" fill="#f2f4f6" d="M 538.5,569.5 C 540.5,569.5 542.5,569.5 544.5,569.5C 544.5,577.167 544.5,584.833 544.5,592.5C 549.5,592.5 554.5,592.5 559.5,592.5C 559.5,594.167 559.5,595.833 559.5,597.5C 552.5,597.5 545.5,597.5 538.5,597.5C 538.5,588.167 538.5,578.833 538.5,569.5 Z"/></g>
<g><path style="opacity:0.849" fill="#f2f4f6" d="M 561.5,569.5 C 563.833,569.5 566.167,569.5 568.5,569.5C 568.334,576.175 568.5,582.842 569,589.5C 572.588,593.393 576.254,593.393 580,589.5C 580.5,582.842 580.666,576.175 580.5,569.5C 582.5,569.5 584.5,569.5 586.5,569.5C 586.666,576.841 586.5,584.174 586,591.5C 583.425,596.147 579.425,598.147 574,597.5C 569.344,598.005 565.677,596.338 563,592.5C 561.644,584.905 561.144,577.238 561.5,569.5 Z"/></g>
<g><path style="opacity:0.921" fill="#f2f4f6" d="M 588.5,569.5 C 596.833,569.5 605.167,569.5 613.5,569.5C 613.5,571.167 613.5,572.833 613.5,574.5C 610.5,574.5 607.5,574.5 604.5,574.5C 604.5,582.167 604.5,589.833 604.5,597.5C 602.5,597.5 600.5,597.5 598.5,597.5C 598.5,589.833 598.5,582.167 598.5,574.5C 595.167,574.5 591.833,574.5 588.5,574.5C 588.5,572.833 588.5,571.167 588.5,569.5 Z"/></g>
<g><path style="opacity:0.9" fill="#f2f4f6" d="M 617.5,569.5 C 619.5,569.5 621.5,569.5 623.5,569.5C 623.5,578.833 623.5,588.167 623.5,597.5C 621.5,597.5 619.5,597.5 617.5,597.5C 617.5,588.167 617.5,578.833 617.5,569.5 Z"/></g>
<g><path style="opacity:0.864" fill="#f2f4f6" d="M 636.5,569.5 C 652.424,568.044 658.59,575.044 655,590.5C 653.437,593.728 650.937,595.895 647.5,597C 631.886,599.386 625.386,592.886 628,577.5C 629.773,573.56 632.606,570.893 636.5,569.5 Z M 638.5,574.5 C 647.649,574.156 651.149,578.49 649,587.5C 646.774,591.861 643.274,593.361 638.5,592C 633.845,589.103 632.345,584.937 634,579.5C 635.025,577.313 636.525,575.646 638.5,574.5 Z"/></g>
<g><path style="opacity:0.878" fill="#f2f4f6" d="M 660.5,569.5 C 663.572,569.183 666.572,569.516 669.5,570.5C 673.255,577.009 676.755,583.676 680,590.5C 680.5,583.508 680.666,576.508 680.5,569.5C 682.5,569.5 684.5,569.5 686.5,569.5C 686.5,578.833 686.5,588.167 686.5,597.5C 683.482,597.665 680.482,597.498 677.5,597C 673.618,590.739 670.118,584.239 667,577.5C 666.5,584.158 666.334,590.825 666.5,597.5C 664.5,597.5 662.5,597.5 660.5,597.5C 660.5,588.167 660.5,578.833 660.5,569.5 Z"/></g>
<g><path style="opacity:0.888" fill="#f2f4f6" d="M 695.5,569.5 C 700.833,569.5 706.167,569.5 711.5,569.5C 711.662,571.527 711.495,573.527 711,575.5C 706.921,574.371 702.755,574.204 698.5,575C 695.85,577.082 696.184,578.749 699.5,580C 704.003,580.068 708.17,581.235 712,583.5C 714,587.167 714,590.833 712,594.5C 710.829,595.893 709.329,596.727 707.5,597C 701.843,597.499 696.176,597.666 690.5,597.5C 690.338,595.473 690.505,593.473 691,591.5C 695.413,592.632 699.913,592.799 704.5,592C 707.443,590.541 707.776,588.874 705.5,587C 701.814,586.441 698.147,585.774 694.5,585C 687.68,579.426 688.013,574.259 695.5,569.5 Z"/></g>
<g><path style="opacity:1" fill="#0096cb" d="M 228.5,548.5 C 232.128,572.007 238.128,595.007 246.5,617.5C 244.797,620.304 243.131,623.804 241.5,628C 241.833,628.333 242.167,628.667 242.5,629C 240.603,630.11 238.77,630.276 237,629.5C 235.433,631.168 233.766,631.502 232,630.5C 225.914,630.823 220.08,632.156 214.5,634.5C 211.103,633.506 207.769,633.84 204.5,635.5C 203.572,636.768 203.405,638.101 204,639.5C 206.636,639.455 209.47,639.288 212.5,639C 213.108,638.13 213.941,637.63 215,637.5C 218.682,638.915 222.349,639.249 226,638.5C 227.188,639.563 227.688,640.897 227.5,642.5C 225.339,642.826 223.506,643.826 222,645.5C 219.81,644.416 218.144,645.083 217,647.5C 215.671,646.506 214.338,645.506 213,644.5C 207.521,646.846 202.021,648.179 196.5,648.5C 193.63,647.878 190.796,647.211 188,646.5C 187.71,648.111 186.877,649.444 185.5,650.5C 176.017,627.901 169.017,604.568 164.5,580.5C 165.167,580.5 165.833,580.5 166.5,580.5C 166.906,584.271 167.739,587.938 169,591.5C 171.391,590.398 171.891,591.064 170.5,593.5C 172.54,596.978 173.04,600.645 172,604.5C 174.614,600.43 178.114,599.097 182.5,600.5C 181.74,604.252 181.407,607.919 181.5,611.5C 182,612.5 182.5,613.5 183,614.5C 184.717,613.012 185.884,611.179 186.5,609C 188.333,607.833 190.167,606.667 192,605.5C 192.333,605.833 192.667,606.167 193,606.5C 194.78,605.406 196.614,604.406 198.5,603.5C 197.391,602.035 197.891,601.035 200,600.5C 202.162,600.94 204.329,601.273 206.5,601.5C 207.251,600.624 207.751,599.624 208,598.5C 209.113,599.711 210.28,599.711 211.5,598.5C 212.192,599.025 212.692,599.692 213,600.5C 217.301,599.106 221.634,597.773 226,596.5C 226.333,596.833 226.667,597.167 227,597.5C 227.5,596.333 228.333,595.5 229.5,595C 228.315,593.647 226.981,592.48 225.5,591.5C 225.667,591.167 225.833,590.833 226,590.5C 227.645,590.693 229.479,590.86 231.5,591C 232.308,592.706 233.641,593.539 235.5,593.5C 235.345,589.371 234.512,585.371 233,581.5C 232.026,579.122 231.359,579.456 231,582.5C 231.513,577.775 231.346,573.108 230.5,568.5C 229.31,561.933 228.643,555.266 228.5,548.5 Z"/></g>
<g><path style="opacity:0.596" fill="#021634" d="M 157.5,484.5 C 157.333,499.504 157.5,514.504 158,529.5C 158.181,532.695 158.681,535.695 159.5,538.5C 159.487,552.735 161.154,566.735 164.5,580.5C 169.017,604.568 176.017,627.901 185.5,650.5C 190.736,662.64 196.736,674.306 203.5,685.5C 204.167,687.5 204.833,689.5 205.5,691.5C 167.606,627.59 151.606,558.59 157.5,484.5 Z"/></g>
<g><path style="opacity:1" fill="#0091c8" d="M 246.5,617.5 C 253.433,633.366 261.433,648.699 270.5,663.5C 266.928,665.426 266.595,667.926 269.5,671C 268.107,672.363 266.441,673.196 264.5,673.5C 260.882,673.627 257.215,673.46 253.5,673C 252.833,673.333 252.167,673.667 251.5,674C 253.833,674.333 256.167,674.667 258.5,675C 257.333,675.5 256.5,676.333 256,677.5C 255.439,676.978 254.772,676.645 254,676.5C 251.088,678.956 247.755,680.623 244,681.5C 242.134,680.753 240.467,680.419 239,680.5C 237.612,683.945 235.112,686.111 231.5,687C 226.908,686.573 222.408,687.406 218,689.5C 215.317,688.107 215.15,686.774 217.5,685.5C 216.675,684.614 215.675,684.281 214.5,684.5C 214.719,685.675 214.386,686.675 213.5,687.5C 211.163,686.978 208.83,685.645 206.5,683.5C 205.304,683.846 205.304,684.346 206.5,685C 205.552,685.483 204.552,685.649 203.5,685.5C 196.736,674.306 190.736,662.64 185.5,650.5C 186.877,649.444 187.71,648.111 188,646.5C 190.796,647.211 193.63,647.878 196.5,648.5C 202.021,648.179 207.521,646.846 213,644.5C 214.338,645.506 215.671,646.506 217,647.5C 218.144,645.083 219.81,644.416 222,645.5C 223.506,643.826 225.339,642.826 227.5,642.5C 227.688,640.897 227.188,639.563 226,638.5C 222.349,639.249 218.682,638.915 215,637.5C 213.941,637.63 213.108,638.13 212.5,639C 209.47,639.288 206.636,639.455 204,639.5C 203.405,638.101 203.572,636.768 204.5,635.5C 207.769,633.84 211.103,633.506 214.5,634.5C 220.08,632.156 225.914,630.823 232,630.5C 233.766,631.502 235.433,631.168 237,629.5C 238.77,630.276 240.603,630.11 242.5,629C 242.167,628.667 241.833,628.333 241.5,628C 243.131,623.804 244.797,620.304 246.5,617.5 Z"/></g>
<g><path style="opacity:1" fill="#006fa8" d="M 812.5,691.5 C 812.5,690.5 812.5,689.5 812.5,688.5C 810.001,689.506 807.667,690.173 805.5,690.5C 804.289,689.726 804.289,688.893 805.5,688C 804.833,687.667 804.167,687.333 803.5,687C 805.421,686.64 807.088,685.806 808.5,684.5C 809.711,683.28 809.711,682.113 808.5,681C 811.049,680.249 812.716,678.582 813.5,676C 812.667,675.167 811.833,674.333 811,673.5C 809.609,676.203 807.609,676.869 805,675.5C 801.494,677.726 797.661,679.059 793.5,679.5C 792.5,679.167 791.833,678.5 791.5,677.5C 794.889,674.231 798.389,673.898 802,676.5C 802.833,675 804,673.833 805.5,673C 804.151,672.228 803.318,671.061 803,669.5C 801.604,671.527 799.938,671.86 798,670.5C 797.717,673.742 796.883,674.076 795.5,671.5C 796.804,669.984 796.304,669.318 794,669.5C 790.937,669.935 790.77,670.768 793.5,672C 790.629,672.131 788.295,673.297 786.5,675.5C 784.291,674.894 782.124,674.227 780,673.5C 779.25,674.126 778.416,674.626 777.5,675C 778.451,675.718 778.617,676.551 778,677.5C 777.333,678.833 776.667,678.833 776,677.5C 773.973,678.212 772.973,679.212 773,680.5C 765.539,679.772 758.372,679.439 751.5,679.5C 748.885,679.856 747.052,681.189 746,683.5C 745.667,682.5 745.333,681.5 745,680.5C 744.097,681.701 742.931,682.535 741.5,683C 742.276,684.77 742.11,686.603 741,688.5C 739.282,686.798 739.115,684.965 740.5,683C 737.702,682.439 735.869,683.606 735,686.5C 734.617,685.944 734.117,685.611 733.5,685.5C 745.12,670.367 755.787,654.534 765.5,638C 789.843,637.752 814.176,638.252 838.5,639.5C 831.385,657.731 822.718,675.064 812.5,691.5 Z"/></g>
<g><path style="opacity:1" fill="#006ca9" d="M 812.5,691.5 C 812.672,692.492 812.338,693.158 811.5,693.5C 808.802,693.45 806.636,694.45 805,696.5C 804.259,695.359 803.425,695.359 802.5,696.5C 801.749,695.624 801.249,694.624 801,693.5C 798.996,695.628 797.662,697.628 797,699.5C 795.85,698.576 794.85,698.576 794,699.5C 793.331,696.972 792.498,696.972 791.5,699.5C 786.147,700.211 780.814,700.878 775.5,701.5C 774.914,701.291 774.414,700.957 774,700.5C 770.799,701.769 768.132,703.769 766,706.5C 763.959,705.577 761.792,705.244 759.5,705.5C 758.312,704.952 757.145,704.619 756,704.5C 750.537,706.947 745.204,706.947 740,704.5C 739.716,706.886 738.716,707.552 737,706.5C 733.081,709.599 728.914,710.766 724.5,710C 722.606,708.596 720.606,707.43 718.5,706.5C 717.833,706.833 717.167,707.167 716.5,707.5C 721.863,712.798 720.863,713.798 713.5,710.5C 712.354,711.145 711.354,711.978 710.5,713C 712.619,713.098 714.286,713.931 715.5,715.5C 713.002,716.938 710.836,716.604 709,714.5C 708.971,717.02 710.137,719.02 712.5,720.5C 710.684,721.942 708.684,722.442 706.5,722C 707.833,721.333 707.833,720.667 706.5,720C 705.207,719.51 703.873,719.343 702.5,719.5C 702.33,720.822 702.663,721.989 703.5,723C 700.588,723.275 697.921,724.109 695.5,725.5C 703.798,717.702 711.965,709.702 720,701.5C 724.281,695.91 728.781,690.577 733.5,685.5C 734.117,685.611 734.617,685.944 735,686.5C 735.869,683.606 737.702,682.439 740.5,683C 739.115,684.965 739.282,686.798 741,688.5C 742.11,686.603 742.276,684.77 741.5,683C 742.931,682.535 744.097,681.701 745,680.5C 745.333,681.5 745.667,682.5 746,683.5C 747.052,681.189 748.885,679.856 751.5,679.5C 758.372,679.439 765.539,679.772 773,680.5C 772.973,679.212 773.973,678.212 776,677.5C 776.667,678.833 777.333,678.833 778,677.5C 778.617,676.551 778.451,675.718 777.5,675C 778.416,674.626 779.25,674.126 780,673.5C 782.124,674.227 784.291,674.894 786.5,675.5C 788.295,673.297 790.629,672.131 793.5,672C 790.77,670.768 790.937,669.935 794,669.5C 796.304,669.318 796.804,669.984 795.5,671.5C 796.883,674.076 797.717,673.742 798,670.5C 799.938,671.86 801.604,671.527 803,669.5C 803.318,671.061 804.151,672.228 805.5,673C 804,673.833 802.833,675 802,676.5C 798.389,673.898 794.889,674.231 791.5,677.5C 791.833,678.5 792.5,679.167 793.5,679.5C 797.661,679.059 801.494,677.726 805,675.5C 807.609,676.869 809.609,676.203 811,673.5C 811.833,674.333 812.667,675.167 813.5,676C 812.716,678.582 811.049,680.249 808.5,681C 809.711,682.113 809.711,683.28 808.5,684.5C 807.088,685.806 805.421,686.64 803.5,687C 804.167,687.333 804.833,687.667 805.5,688C 804.289,688.893 804.289,689.726 805.5,690.5C 807.667,690.173 810.001,689.506 812.5,688.5C 812.5,689.5 812.5,690.5 812.5,691.5 Z"/></g>
<g><path style="opacity:1" fill="#008bc4" d="M 270.5,663.5 C 285.22,685.237 302.22,705.237 321.5,723.5C 321.731,727.085 320.731,730.252 318.5,733C 320.379,734.444 322.045,733.944 323.5,731.5C 323.723,732.967 324.056,734.467 324.5,736C 321.785,736.875 320.452,738.708 320.5,741.5C 319.5,741.5 318.5,741.5 317.5,741.5C 317.719,740.325 317.386,739.325 316.5,738.5C 315.494,738.938 315.494,739.604 316.5,740.5C 315.758,741.287 314.925,741.953 314,742.5C 311.332,741.02 311.165,739.52 313.5,738C 311.457,737.07 309.624,736.57 308,736.5C 307.682,738.061 306.849,739.228 305.5,740C 306.634,741.016 306.301,741.683 304.5,742C 304.833,742.333 305.167,742.667 305.5,743C 304.274,744.635 302.941,746.135 301.5,747.5C 298.381,746.306 298.048,744.806 300.5,743C 300,742.833 299.5,742.667 299,742.5C 295.966,743.058 292.966,744.392 290,746.5C 288.883,746.335 287.716,746.002 286.5,745.5C 281.517,748.652 282.017,751.319 288,753.5C 289.825,752.429 290.992,753.096 291.5,755.5C 289.149,756.862 286.816,758.195 284.5,759.5C 283.062,759.281 281.729,758.781 280.5,758C 280.404,756.627 280.57,755.127 281,753.5C 280.667,753.833 280.333,754.167 280,754.5C 279.027,752.36 277.527,750.693 275.5,749.5C 273.164,751.073 273.164,752.406 275.5,753.5C 273.665,754.428 273.332,755.594 274.5,757C 273.833,757.167 273.167,757.333 272.5,757.5C 269.832,755.531 266.999,755.198 264,756.5C 263.691,755.234 263.191,754.067 262.5,753C 262.833,752.667 263.167,752.333 263.5,752C 261.444,751.689 259.444,751.189 257.5,750.5C 255.712,751.283 254.712,752.616 254.5,754.5C 252.5,752.833 250.5,751.167 248.5,749.5C 246.833,748.5 245.5,747.167 244.5,745.5C 243.92,743.251 242.587,741.585 240.5,740.5C 240.282,735.95 237.949,733.284 233.5,732.5C 233.573,730.973 232.906,729.973 231.5,729.5C 230.5,729.167 229.833,728.5 229.5,727.5C 229.446,725.368 228.446,724.035 226.5,723.5C 226.573,721.973 225.906,720.973 224.5,720.5C 224.573,718.973 223.906,717.973 222.5,717.5C 221.833,717.5 221.5,717.167 221.5,716.5C 221.573,714.973 220.906,713.973 219.5,713.5C 216.759,711.025 214.759,708.025 213.5,704.5C 213.573,702.973 212.906,701.973 211.5,701.5C 211.25,699.326 210.25,697.659 208.5,696.5C 208.25,694.326 207.25,692.659 205.5,691.5C 204.833,689.5 204.167,687.5 203.5,685.5C 204.552,685.649 205.552,685.483 206.5,685C 205.304,684.346 205.304,683.846 206.5,683.5C 208.83,685.645 211.163,686.978 213.5,687.5C 214.386,686.675 214.719,685.675 214.5,684.5C 215.675,684.281 216.675,684.614 217.5,685.5C 215.15,686.774 215.317,688.107 218,689.5C 222.408,687.406 226.908,686.573 231.5,687C 235.112,686.111 237.612,683.945 239,680.5C 240.467,680.419 242.134,680.753 244,681.5C 247.755,680.623 251.088,678.956 254,676.5C 254.772,676.645 255.439,676.978 256,677.5C 256.5,676.333 257.333,675.5 258.5,675C 256.167,674.667 253.833,674.333 251.5,674C 252.167,673.667 252.833,673.333 253.5,673C 257.215,673.46 260.882,673.627 264.5,673.5C 266.441,673.196 268.107,672.363 269.5,671C 266.595,667.926 266.928,665.426 270.5,663.5 Z"/></g>
<g><path style="opacity:0.431" fill="#011737" d="M 205.5,691.5 C 207.25,692.659 208.25,694.326 208.5,696.5C 206.75,695.341 205.75,693.674 205.5,691.5 Z"/></g>
<g><path style="opacity:1" fill="#0064a1" d="M 811.5,693.5 C 801.43,711.568 789.43,728.234 775.5,743.5C 775.66,741.801 775.494,740.134 775,738.5C 773.542,739.747 772.042,739.747 770.5,738.5C 769.167,739.5 767.833,740.5 766.5,741.5C 766.167,741 765.833,740.5 765.5,740C 766.272,738.779 767.272,737.779 768.5,737C 764.863,733.572 760.863,733.072 756.5,735.5C 754.694,734.141 753.194,734.475 752,736.5C 749.054,734.29 749.387,732.29 753,730.5C 753.5,731 754,731.5 754.5,732C 757.482,732.498 760.482,732.665 763.5,732.5C 763.5,731.5 763.5,730.5 763.5,729.5C 764.552,729.351 765.552,729.517 766.5,730C 765.289,730.893 765.289,731.726 766.5,732.5C 768.021,732.12 769.687,731.954 771.5,732C 771.833,731.667 772.167,731.333 772.5,731C 772.004,729.004 771.004,727.337 769.5,726C 772.3,723.581 772.133,721.414 769,719.5C 768.586,719.957 768.086,720.291 767.5,720.5C 765.724,718.115 763.724,715.949 761.5,714C 762.453,712.045 763.787,710.378 765.5,709C 763.743,707.25 761.743,706.084 759.5,705.5C 761.792,705.244 763.959,705.577 766,706.5C 768.132,703.769 770.799,701.769 774,700.5C 774.414,700.957 774.914,701.291 775.5,701.5C 780.814,700.878 786.147,700.211 791.5,699.5C 792.498,696.972 793.331,696.972 794,699.5C 794.85,698.576 795.85,698.576 797,699.5C 797.662,697.628 798.996,695.628 801,693.5C 801.249,694.624 801.749,695.624 802.5,696.5C 803.425,695.359 804.259,695.359 805,696.5C 806.636,694.45 808.802,693.45 811.5,693.5 Z"/></g>
<g><path style="opacity:0.157" fill="#021433" d="M 208.5,696.5 C 210.25,697.659 211.25,699.326 211.5,701.5C 209.75,700.341 208.75,698.674 208.5,696.5 Z"/></g>
<g><path style="opacity:0.278" fill="#021431" d="M 211.5,701.5 C 212.906,701.973 213.573,702.973 213.5,704.5C 212.094,704.027 211.427,703.027 211.5,701.5 Z"/></g>
<g><path style="opacity:1" fill="#0068a9" d="M 759.5,705.5 C 761.743,706.084 763.743,707.25 765.5,709C 763.787,710.378 762.453,712.045 761.5,714C 763.724,715.949 765.724,718.115 767.5,720.5C 768.086,720.291 768.586,719.957 769,719.5C 772.133,721.414 772.3,723.581 769.5,726C 771.004,727.337 772.004,729.004 772.5,731C 772.167,731.333 771.833,731.667 771.5,732C 769.687,731.954 768.021,732.12 766.5,732.5C 765.289,731.726 765.289,730.893 766.5,730C 765.552,729.517 764.552,729.351 763.5,729.5C 763.5,730.5 763.5,731.5 763.5,732.5C 760.482,732.665 757.482,732.498 754.5,732C 754,731.5 753.5,731 753,730.5C 749.387,732.29 749.054,734.29 752,736.5C 753.194,734.475 754.694,734.141 756.5,735.5C 760.863,733.072 764.863,733.572 768.5,737C 767.272,737.779 766.272,738.779 765.5,740C 765.833,740.5 766.167,741 766.5,741.5C 767.833,740.5 769.167,739.5 770.5,738.5C 772.042,739.747 773.542,739.747 775,738.5C 775.494,740.134 775.66,741.801 775.5,743.5C 773.833,745.833 771.833,747.833 769.5,749.5C 767.413,750.585 766.08,752.251 765.5,754.5C 762.167,758.5 758.5,762.167 754.5,765.5C 751.236,767.094 748.569,769.427 746.5,772.5C 745.167,774.5 743.5,776.167 741.5,777.5C 738.626,779.258 736.459,778.592 735,775.5C 732.699,776.676 732.366,778.01 734,779.5C 734.333,779.167 734.667,778.833 735,778.5C 734.96,782.542 732.793,784.708 728.5,785C 726.393,786.264 725.393,788.097 725.5,790.5C 723.596,790.738 722.262,791.738 721.5,793.5C 719.596,793.738 718.262,794.738 717.5,796.5C 715.973,796.427 714.973,797.094 714.5,798.5C 711.725,801.605 708.392,803.938 704.5,805.5C 702.973,805.427 701.973,806.094 701.5,807.5C 699.973,807.427 698.973,808.094 698.5,809.5C 694.699,810.201 691.032,811.368 687.5,813C 689.619,813.342 689.953,814.175 688.5,815.5C 686.664,817.588 684.331,818.921 681.5,819.5C 679.973,819.427 678.973,820.094 678.5,821.5C 676.819,823.008 674.819,824.008 672.5,824.5C 666.223,826.573 659.889,828.74 653.5,831C 653.833,831.333 654.167,831.667 654.5,832C 649.629,832.736 645.629,834.902 642.5,838.5C 640.11,840.02 637.443,841.02 634.5,841.5C 632.173,841.665 630.007,842.331 628,843.5C 626.612,842.446 625.112,842.28 623.5,843C 618.838,845.698 613.838,847.531 608.5,848.5C 607.21,847.942 606.377,846.942 606,845.5C 604.285,845.52 602.452,846.186 600.5,847.5C 599.328,847.081 598.328,846.415 597.5,845.5C 599.923,844.271 602.423,843.271 605,842.5C 605.456,841.256 604.956,840.423 603.5,840C 604.162,838.668 605.328,837.502 607,836.5C 607.333,837.167 607.667,837.833 608,838.5C 608.785,836.714 609.951,835.214 611.5,834C 610.663,832.989 610.33,831.822 610.5,830.5C 612.792,830.756 614.959,830.423 617,829.5C 617.748,831.332 618.748,832.999 620,834.5C 620.396,832.04 621.563,830.04 623.5,828.5C 622.41,826.997 621.243,826.664 620,827.5C 620.02,824.972 619.687,822.639 619,820.5C 617.933,821.191 616.766,821.691 615.5,822C 611.345,822.122 607.345,822.289 603.5,822.5C 602.744,824.613 602.577,826.613 603,828.5C 600.595,825.431 597.595,823.098 594,821.5C 590.702,822.183 590.702,821.516 594,819.5C 594.808,817.421 594.641,815.421 593.5,813.5C 589.52,813.761 586.353,815.428 584,818.5C 583.064,816.292 581.398,814.958 579,814.5C 578.667,815.167 578.333,815.833 578,816.5C 577.56,814.924 576.727,813.59 575.5,812.5C 577.197,811.636 578.363,810.303 579,808.5C 581.185,809.928 583.185,811.595 585,813.5C 585.98,812.019 587.147,810.685 588.5,809.5C 590.098,809.61 591.765,809.943 593.5,810.5C 594.192,809.975 594.692,809.308 595,808.5C 595.308,809.308 595.808,809.975 596.5,810.5C 597.711,809.726 597.711,808.893 596.5,808C 597.449,807.383 598.282,807.549 599,808.5C 599.333,807.833 599.667,807.167 600,806.5C 601.4,807.116 602.9,807.449 604.5,807.5C 608.381,806.64 612.215,805.64 616,804.5C 616.333,804.833 616.667,805.167 617,805.5C 618.74,804.284 619.74,802.618 620,800.5C 620.333,800.833 620.667,801.167 621,801.5C 621.749,800.365 621.583,799.365 620.5,798.5C 616.892,799.593 613.225,799.76 609.5,799C 611.947,797.771 612.113,796.271 610,794.5C 608.127,795.089 606.46,794.422 605,792.5C 601.839,794.388 599.339,796.222 597.5,798C 598.849,798.772 599.682,799.939 600,801.5C 601,800.167 602,800.167 603,801.5C 602.689,800.065 602.855,798.732 603.5,797.5C 604.698,797.06 605.865,796.727 607,796.5C 608.827,798.24 608.66,799.907 606.5,801.5C 603.342,801.826 600.508,802.826 598,804.5C 596.984,803.366 596.317,803.699 596,805.5C 595.085,804.672 594.419,803.672 594,802.5C 593.683,804.301 593.016,804.634 592,803.5C 588.925,804.249 585.925,805.249 583,806.5C 579.836,803.318 580.502,802.318 585,803.5C 588.152,802.09 591.319,800.756 594.5,799.5C 592.363,798.92 590.53,797.92 589,796.5C 587.192,796.888 585.525,796.888 584,796.5C 582.667,797.167 581.667,798.167 581,799.5C 579.333,798.167 577.667,798.167 576,799.5C 573.107,797.562 572.607,795.562 574.5,793.5C 573.359,792.575 573.359,791.741 574.5,791C 571.647,789.57 568.647,788.737 565.5,788.5C 613.923,777.62 657.256,756.62 695.5,725.5C 697.921,724.109 700.588,723.275 703.5,723C 702.663,721.989 702.33,720.822 702.5,719.5C 703.873,719.343 705.207,719.51 706.5,720C 707.833,720.667 707.833,721.333 706.5,722C 708.684,722.442 710.684,721.942 712.5,720.5C 710.137,719.02 708.971,717.02 709,714.5C 710.836,716.604 713.002,716.938 715.5,715.5C 714.286,713.931 712.619,713.098 710.5,713C 711.354,711.978 712.354,711.145 713.5,710.5C 720.863,713.798 721.863,712.798 716.5,707.5C 717.167,707.167 717.833,706.833 718.5,706.5C 720.606,707.43 722.606,708.596 724.5,710C 728.914,710.766 733.081,709.599 737,706.5C 738.716,707.552 739.716,706.886 740,704.5C 745.204,706.947 750.537,706.947 756,704.5C 757.145,704.619 758.312,704.952 759.5,705.5 Z"/></g>
<g><path style="opacity:0.024" fill="#021130" d="M 219.5,713.5 C 220.906,713.973 221.573,714.973 221.5,716.5C 220.094,716.027 219.427,715.027 219.5,713.5 Z"/></g>
<g><path style="opacity:0.114" fill="#001637" d="M 222.5,717.5 C 223.906,717.973 224.573,718.973 224.5,720.5C 223.094,720.027 222.427,719.027 222.5,717.5 Z"/></g>
<g><path style="opacity:0.004" fill="#011435" d="M 224.5,720.5 C 225.906,720.973 226.573,721.973 226.5,723.5C 225.094,723.027 224.427,722.027 224.5,720.5 Z"/></g>
<g><path style="opacity:0.004" fill="#011c3e" d="M 226.5,723.5 C 228.446,724.035 229.446,725.368 229.5,727.5C 228.026,726.564 227.026,725.23 226.5,723.5 Z"/></g>
<g><path style="opacity:0.067" fill="#031634" d="M 231.5,729.5 C 232.906,729.973 233.573,730.973 233.5,732.5C 232.094,732.027 231.427,731.027 231.5,729.5 Z"/></g>
<g><path style="opacity:1" fill="#0086c1" d="M 321.5,723.5 C 331.889,731.892 342.556,739.892 353.5,747.5C 354.863,751.702 357.53,754.869 361.5,757C 360.054,759.493 360.721,761.327 363.5,762.5C 360.382,765.746 358.215,764.746 357,759.5C 355.167,760.667 353.667,762.167 352.5,764C 352.833,764.333 353.167,764.667 353.5,765C 351.668,765.748 350.001,766.748 348.5,768C 350.437,770.435 352.27,770.602 354,768.5C 354.497,770.81 354.663,773.143 354.5,775.5C 342.218,776.312 329.885,776.645 317.5,776.5C 317.561,778.592 318.561,780.092 320.5,781C 316.226,783.288 312.226,782.954 308.5,780C 309.5,779.167 310.5,778.333 311.5,777.5C 310.833,777.167 310.167,776.833 309.5,776.5C 305.532,777.817 301.865,779.651 298.5,782C 299.524,783.367 299.024,784.2 297,784.5C 296.154,782.122 294.321,779.955 291.5,778C 291.833,777.667 292.167,777.333 292.5,777C 289.5,777.167 286.5,777.333 283.5,777.5C 282.152,775.539 280.819,775.372 279.5,777C 280.373,778.045 281.373,778.878 282.5,779.5C 282.158,780.338 281.492,780.672 280.5,780.5C 278.761,777.757 276.427,775.757 273.5,774.5C 272.5,774.167 271.833,773.5 271.5,772.5C 266.776,766.773 261.442,761.773 255.5,757.5C 255.443,756.391 255.11,755.391 254.5,754.5C 254.712,752.616 255.712,751.283 257.5,750.5C 259.444,751.189 261.444,751.689 263.5,752C 263.167,752.333 262.833,752.667 262.5,753C 263.191,754.067 263.691,755.234 264,756.5C 266.999,755.198 269.832,755.531 272.5,757.5C 273.167,757.333 273.833,757.167 274.5,757C 273.332,755.594 273.665,754.428 275.5,753.5C 273.164,752.406 273.164,751.073 275.5,749.5C 277.527,750.693 279.027,752.36 280,754.5C 280.333,754.167 280.667,753.833 281,753.5C 280.57,755.127 280.404,756.627 280.5,758C 281.729,758.781 283.062,759.281 284.5,759.5C 286.816,758.195 289.149,756.862 291.5,755.5C 290.992,753.096 289.825,752.429 288,753.5C 282.017,751.319 281.517,748.652 286.5,745.5C 287.716,746.002 288.883,746.335 290,746.5C 292.966,744.392 295.966,743.058 299,742.5C 299.5,742.667 300,742.833 300.5,743C 298.048,744.806 298.381,746.306 301.5,747.5C 302.941,746.135 304.274,744.635 305.5,743C 305.167,742.667 304.833,742.333 304.5,742C 306.301,741.683 306.634,741.016 305.5,740C 306.849,739.228 307.682,738.061 308,736.5C 309.624,736.57 311.457,737.07 313.5,738C 311.165,739.52 311.332,741.02 314,742.5C 314.925,741.953 315.758,741.287 316.5,740.5C 315.494,739.604 315.494,738.938 316.5,738.5C 317.386,739.325 317.719,740.325 317.5,741.5C 318.5,741.5 319.5,741.5 320.5,741.5C 320.452,738.708 321.785,736.875 324.5,736C 324.056,734.467 323.723,732.967 323.5,731.5C 322.045,733.944 320.379,734.444 318.5,733C 320.731,730.252 321.731,727.085 321.5,723.5 Z"/></g>
<g><path style="opacity:1" fill="#045580" d="M 233.5,732.5 C 237.949,733.284 240.282,735.95 240.5,740.5C 237.45,738.451 235.117,735.784 233.5,732.5 Z"/></g>
<g><path style="opacity:0.035" fill="#011a3d" d="M 240.5,740.5 C 242.587,741.585 243.92,743.251 244.5,745.5C 242.413,744.415 241.08,742.749 240.5,740.5 Z"/></g>
<g><path style="opacity:0.043" fill="#002044" d="M 248.5,749.5 C 250.5,751.167 252.5,752.833 254.5,754.5C 255.11,755.391 255.443,756.391 255.5,757.5C 252.427,755.431 250.094,752.764 248.5,749.5 Z"/></g>
<g><path style="opacity:0.122" fill="#00193c" d="M 769.5,749.5 C 768.92,751.749 767.587,753.415 765.5,754.5C 766.08,752.251 767.413,750.585 769.5,749.5 Z"/></g>
<g><path style="opacity:0.741" fill="#00274d" d="M 255.5,757.5 C 261.442,761.773 266.776,766.773 271.5,772.5C 265.558,768.227 260.224,763.227 255.5,757.5 Z"/></g>
<g><path style="opacity:0.122" fill="#001434" d="M 754.5,765.5 C 752.431,768.573 749.764,770.906 746.5,772.5C 748.569,769.427 751.236,767.094 754.5,765.5 Z"/></g>
<g><path style="opacity:1" fill="#007eb9" d="M 353.5,747.5 C 378.723,763.358 405.723,775.358 434.5,783.5C 434.5,783.833 434.5,784.167 434.5,784.5C 431.813,784.341 429.48,785.175 427.5,787C 428.728,787.779 429.728,788.779 430.5,790C 430.167,790.5 429.833,791 429.5,791.5C 428.167,790.167 426.833,790.167 425.5,791.5C 424.289,792.274 424.289,793.107 425.5,794C 424.552,794.483 423.552,794.649 422.5,794.5C 422.393,796.903 423.393,798.736 425.5,800C 424.027,800.71 423.36,801.876 423.5,803.5C 420.514,804.471 417.514,805.471 414.5,806.5C 413.006,806.291 411.839,805.624 411,804.5C 410.535,805.931 409.701,807.097 408.5,808C 411.849,808.089 412.349,809.256 410,811.5C 408.757,809.167 407.091,808.5 405,809.5C 404.333,806.833 403.667,806.833 403,809.5C 402.586,809.043 402.086,808.709 401.5,808.5C 399.827,810.086 397.827,810.753 395.5,810.5C 394.376,812.731 393.876,815.064 394,817.5C 397.471,816.352 399.971,814.685 401.5,812.5C 403.765,813.979 406.099,815.313 408.5,816.5C 405.526,817.009 402.193,818.342 398.5,820.5C 397.914,820.291 397.414,819.957 397,819.5C 395.611,823.272 394.611,823.272 394,819.5C 393.751,820.624 393.251,821.624 392.5,822.5C 392.167,822.333 391.833,822.167 391.5,822C 390.636,820.152 390.636,817.986 391.5,815.5C 390.24,814.618 389.074,813.618 388,812.5C 385.381,815.015 385.214,817.849 387.5,821C 383.935,824.164 380.435,823.997 377,820.5C 376.05,821.022 375.216,821.689 374.5,822.5C 373.035,821.391 372.035,821.891 371.5,824C 369.034,823.93 366.7,824.096 364.5,824.5C 363.833,824.333 363.167,824.167 362.5,824C 362.07,823.08 361.736,822.247 361.5,821.5C 360.086,822.465 359.253,823.465 359,824.5C 357.85,823.576 356.85,823.576 356,824.5C 355.396,822.314 354.23,822.148 352.5,824C 353.252,824.671 353.586,825.504 353.5,826.5C 349.211,823.903 344.544,822.236 339.5,821.5C 333.332,818.92 327.665,815.586 322.5,811.5C 319.215,806.133 315.715,801.466 312,797.5C 311.167,798.5 310.333,799.5 309.5,800.5C 308.914,800.291 308.414,799.957 308,799.5C 308.434,797.824 309.268,796.157 310.5,794.5C 310.291,793.914 309.957,793.414 309.5,793C 308.175,793.148 307.008,792.982 306,792.5C 305.508,793.549 305.674,794.549 306.5,795.5C 305.833,795.833 305.167,796.167 304.5,796.5C 302.208,794.551 299.541,793.551 296.5,793.5C 295.415,791.413 293.749,790.08 291.5,789.5C 289.177,785.506 286.177,782.172 282.5,779.5C 281.373,778.878 280.373,778.045 279.5,777C 280.819,775.372 282.152,775.539 283.5,777.5C 286.5,777.333 289.5,777.167 292.5,777C 292.167,777.333 291.833,777.667 291.5,778C 294.321,779.955 296.154,782.122 297,784.5C 299.024,784.2 299.524,783.367 298.5,782C 301.865,779.651 305.532,777.817 309.5,776.5C 310.167,776.833 310.833,777.167 311.5,777.5C 310.5,778.333 309.5,779.167 308.5,780C 312.226,782.954 316.226,783.288 320.5,781C 318.561,780.092 317.561,778.592 317.5,776.5C 329.885,776.645 342.218,776.312 354.5,775.5C 354.663,773.143 354.497,770.81 354,768.5C 352.27,770.602 350.437,770.435 348.5,768C 350.001,766.748 351.668,765.748 353.5,765C 353.167,764.667 352.833,764.333 352.5,764C 353.667,762.167 355.167,760.667 357,759.5C 358.215,764.746 360.382,765.746 363.5,762.5C 360.721,761.327 360.054,759.493 361.5,757C 357.53,754.869 354.863,751.702 353.5,747.5 Z"/></g>
<g><path style="opacity:0.843" fill="#012d54" d="M 273.5,774.5 C 276.427,775.757 278.761,777.757 280.5,780.5C 277.573,779.243 275.239,777.243 273.5,774.5 Z"/></g>
<g><path style="opacity:1" fill="#025a88" d="M 282.5,779.5 C 286.177,782.172 289.177,785.506 291.5,789.5C 287.273,787.215 283.607,784.215 280.5,780.5C 281.492,780.672 282.158,780.338 282.5,779.5 Z"/></g>
<g><path style="opacity:1" fill="#0079b6" d="M 434.5,784.5 C 437.629,785.913 440.962,787.08 444.5,788C 443.833,789 443.167,790 442.5,791C 444.409,792.883 446.575,794.383 449,795.5C 449.333,795.167 449.667,794.833 450,794.5C 450.667,795.833 450.667,797.167 450,798.5C 445.913,801.916 442.58,805.916 440,810.5C 439.667,810.167 439.333,809.833 439,809.5C 435.476,810.207 432.976,812.207 431.5,815.5C 429.323,814.496 428.989,815.162 430.5,817.5C 429.41,819.003 428.243,819.336 427,818.5C 424.133,818.935 421.633,820.101 419.5,822C 421.784,823.363 421.951,824.863 420,826.5C 419.517,825.552 419.351,824.552 419.5,823.5C 417.488,822.986 415.488,822.82 413.5,823C 411.898,824.935 410.731,827.101 410,829.5C 409.641,826.456 408.974,826.122 408,828.5C 406.691,826.109 405.691,826.109 405,828.5C 403.582,826.637 401.749,826.137 399.5,827C 399.833,827.333 400.167,827.667 400.5,828C 398.744,828.202 397.078,828.702 395.5,829.5C 399.426,830.342 400.259,832.342 398,835.5C 397.612,834.572 396.945,833.905 396,833.5C 395.955,834.923 394.789,835.923 392.5,836.5C 391.086,835.376 389.586,834.376 388,833.5C 387.517,834.448 387.351,835.448 387.5,836.5C 381.558,836.788 381.225,835.955 386.5,834C 381.481,831.878 376.981,832.712 373,836.5C 370.258,834.442 367.091,833.442 363.5,833.5C 363.586,832.504 363.252,831.671 362.5,831C 360.579,830.64 358.912,829.806 357.5,828.5C 357.709,827.914 358.043,827.414 358.5,827C 356.866,826.506 355.199,826.34 353.5,826.5C 353.586,825.504 353.252,824.671 352.5,824C 354.23,822.148 355.396,822.314 356,824.5C 356.85,823.576 357.85,823.576 359,824.5C 359.253,823.465 360.086,822.465 361.5,821.5C 361.736,822.247 362.07,823.08 362.5,824C 363.167,824.167 363.833,824.333 364.5,824.5C 366.7,824.096 369.034,823.93 371.5,824C 372.035,821.891 373.035,821.391 374.5,822.5C 375.216,821.689 376.05,821.022 377,820.5C 380.435,823.997 383.935,824.164 387.5,821C 385.214,817.849 385.381,815.015 388,812.5C 389.074,813.618 390.24,814.618 391.5,815.5C 390.636,817.986 390.636,820.152 391.5,822C 391.833,822.167 392.167,822.333 392.5,822.5C 393.251,821.624 393.751,820.624 394,819.5C 394.611,823.272 395.611,823.272 397,819.5C 397.414,819.957 397.914,820.291 398.5,820.5C 402.193,818.342 405.526,817.009 408.5,816.5C 406.099,815.313 403.765,813.979 401.5,812.5C 399.971,814.685 397.471,816.352 394,817.5C 393.876,815.064 394.376,812.731 395.5,810.5C 397.827,810.753 399.827,810.086 401.5,808.5C 402.086,808.709 402.586,809.043 403,809.5C 403.667,806.833 404.333,806.833 405,809.5C 407.091,808.5 408.757,809.167 410,811.5C 412.349,809.256 411.849,808.089 408.5,808C 409.701,807.097 410.535,805.931 411,804.5C 411.839,805.624 413.006,806.291 414.5,806.5C 417.514,805.471 420.514,804.471 423.5,803.5C 423.36,801.876 424.027,800.71 425.5,800C 423.393,798.736 422.393,796.903 422.5,794.5C 423.552,794.649 424.552,794.483 425.5,794C 424.289,793.107 424.289,792.274 425.5,791.5C 426.833,790.167 428.167,790.167 429.5,791.5C 429.833,791 430.167,790.5 430.5,790C 429.728,788.779 428.728,787.779 427.5,787C 429.48,785.175 431.813,784.341 434.5,784.5 Z"/></g>
<g><path style="opacity:1" fill="#023f6d" d="M 741.5,777.5 C 736.771,782.561 731.438,786.894 725.5,790.5C 725.393,788.097 726.393,786.264 728.5,785C 732.793,784.708 734.96,782.542 735,778.5C 734.667,778.833 734.333,779.167 734,779.5C 732.366,778.01 732.699,776.676 735,775.5C 736.459,778.592 738.626,779.258 741.5,777.5 Z"/></g>
<g><path style="opacity:0.824" fill="#013860" d="M 291.5,789.5 C 293.749,790.08 295.415,791.413 296.5,793.5C 294.251,792.92 292.585,791.587 291.5,789.5 Z"/></g>
<g><path style="opacity:1" fill="#0072ae" d="M 434.5,783.5 C 448.01,786.935 461.676,789.602 475.5,791.5C 481.069,793.017 486.736,794.017 492.5,794.5C 488.122,794.629 483.955,794.629 480,794.5C 475.594,797.121 475.76,798.621 480.5,799C 477.007,800.417 476.84,801.917 480,803.5C 480.595,804.899 480.428,806.232 479.5,807.5C 480.008,809.904 481.175,810.571 483,809.5C 481.947,806.482 482.947,804.148 486,802.5C 486.667,805.167 487.333,805.167 488,802.5C 489.926,804.545 492.092,806.378 494.5,808C 492.668,808.748 491.001,809.748 489.5,811C 491.867,811.374 493.7,812.541 495,814.5C 496.412,813.077 497.579,813.244 498.5,815C 497.552,815.483 496.552,815.649 495.5,815.5C 495.762,816.978 495.429,818.311 494.5,819.5C 491.987,818.152 490.153,816.152 489,813.5C 488.667,814.167 488.333,814.833 488,815.5C 486.701,815.034 485.201,815.034 483.5,815.5C 483.113,818.254 482.779,820.754 482.5,823C 479.443,823.256 476.443,823.756 473.5,824.5C 469.074,823.909 464.907,824.909 461,827.5C 458.669,825.669 456.502,823.669 454.5,821.5C 454.719,820.062 455.219,818.729 456,817.5C 457.367,818.524 458.2,818.024 458.5,816C 458.37,814.941 457.87,814.108 457,813.5C 455.509,815.004 453.676,815.837 451.5,816C 449.476,818.249 447.809,820.749 446.5,823.5C 441.824,824.503 437.157,825.503 432.5,826.5C 432.458,828.849 433.625,830.182 436,830.5C 438.333,829.5 440.667,828.5 443,827.5C 443.552,828.986 445.052,830.152 447.5,831C 451.599,830.626 455.599,831.46 459.5,833.5C 461.722,832.222 464.056,831.222 466.5,830.5C 468.764,830.904 470.93,830.904 473,830.5C 473.483,831.448 473.649,832.448 473.5,833.5C 469.5,833.5 467.5,835.5 467.5,839.5C 466.022,839.238 464.689,839.571 463.5,840.5C 462.556,842.688 460.889,844.021 458.5,844.5C 456.588,842.343 454.921,840.009 453.5,837.5C 452.232,836.572 450.899,836.405 449.5,837C 448.167,838 448.167,839 449.5,840C 444.216,841.378 444.216,842.711 449.5,844C 447.109,845.309 447.109,846.309 449.5,847C 448.751,848.734 448.251,850.567 448,852.5C 446.89,850.963 445.39,850.297 443.5,850.5C 443.439,853.05 442.106,854.55 439.5,855C 440.167,855.333 440.833,855.667 441.5,856C 440.207,856.49 438.873,856.657 437.5,856.5C 432.227,855.182 426.893,854.182 421.5,853.5C 420.025,851.59 418.025,850.424 415.5,850C 411.509,849.358 407.509,848.858 403.5,848.5C 400.916,846.528 397.916,845.528 394.5,845.5C 383.777,842.297 373.443,838.297 363.5,833.5C 367.091,833.442 370.258,834.442 373,836.5C 376.981,832.712 381.481,831.878 386.5,834C 381.225,835.955 381.558,836.788 387.5,836.5C 387.351,835.448 387.517,834.448 388,833.5C 389.586,834.376 391.086,835.376 392.5,836.5C 394.789,835.923 395.955,834.923 396,833.5C 396.945,833.905 397.612,834.572 398,835.5C 400.259,832.342 399.426,830.342 395.5,829.5C 397.078,828.702 398.744,828.202 400.5,828C 400.167,827.667 399.833,827.333 399.5,827C 401.749,826.137 403.582,826.637 405,828.5C 405.691,826.109 406.691,826.109 408,828.5C 408.974,826.122 409.641,826.456 410,829.5C 410.731,827.101 411.898,824.935 413.5,823C 415.488,822.82 417.488,822.986 419.5,823.5C 419.351,824.552 419.517,825.552 420,826.5C 421.951,824.863 421.784,823.363 419.5,822C 421.633,820.101 424.133,818.935 427,818.5C 428.243,819.336 429.41,819.003 430.5,817.5C 428.989,815.162 429.323,814.496 431.5,815.5C 432.976,812.207 435.476,810.207 439,809.5C 439.333,809.833 439.667,810.167 440,810.5C 442.58,805.916 445.913,801.916 450,798.5C 450.667,797.167 450.667,795.833 450,794.5C 449.667,794.833 449.333,795.167 449,795.5C 446.575,794.383 444.409,792.883 442.5,791C 443.167,790 443.833,789 444.5,788C 440.962,787.08 437.629,785.913 434.5,784.5C 434.5,784.167 434.5,783.833 434.5,783.5 Z"/></g>
<g><path style="opacity:1" fill="#006bab" d="M 565.5,788.5 C 568.647,788.737 571.647,789.57 574.5,791C 573.359,791.741 573.359,792.575 574.5,793.5C 572.607,795.562 573.107,797.562 576,799.5C 577.667,798.167 579.333,798.167 581,799.5C 581.667,798.167 582.667,797.167 584,796.5C 585.525,796.888 587.192,796.888 589,796.5C 590.53,797.92 592.363,798.92 594.5,799.5C 591.319,800.756 588.152,802.09 585,803.5C 580.502,802.318 579.836,803.318 583,806.5C 585.925,805.249 588.925,804.249 592,803.5C 593.016,804.634 593.683,804.301 594,802.5C 594.419,803.672 595.085,804.672 596,805.5C 596.317,803.699 596.984,803.366 598,804.5C 600.508,802.826 603.342,801.826 606.5,801.5C 608.66,799.907 608.827,798.24 607,796.5C 605.865,796.727 604.698,797.06 603.5,797.5C 602.855,798.732 602.689,800.065 603,801.5C 602,800.167 601,800.167 600,801.5C 599.682,799.939 598.849,798.772 597.5,798C 599.339,796.222 601.839,794.388 605,792.5C 606.46,794.422 608.127,795.089 610,794.5C 612.113,796.271 611.947,797.771 609.5,799C 613.225,799.76 616.892,799.593 620.5,798.5C 621.583,799.365 621.749,800.365 621,801.5C 620.667,801.167 620.333,800.833 620,800.5C 619.74,802.618 618.74,804.284 617,805.5C 616.667,805.167 616.333,804.833 616,804.5C 612.215,805.64 608.381,806.64 604.5,807.5C 602.9,807.449 601.4,807.116 600,806.5C 599.667,807.167 599.333,807.833 599,808.5C 598.282,807.549 597.449,807.383 596.5,808C 597.711,808.893 597.711,809.726 596.5,810.5C 595.808,809.975 595.308,809.308 595,808.5C 594.692,809.308 594.192,809.975 593.5,810.5C 591.765,809.943 590.098,809.61 588.5,809.5C 587.147,810.685 585.98,812.019 585,813.5C 583.185,811.595 581.185,809.928 579,808.5C 578.363,810.303 577.197,811.636 575.5,812.5C 576.727,813.59 577.56,814.924 578,816.5C 578.333,815.833 578.667,815.167 579,814.5C 581.398,814.958 583.064,816.292 584,818.5C 586.353,815.428 589.52,813.761 593.5,813.5C 594.641,815.421 594.808,817.421 594,819.5C 590.702,821.516 590.702,822.183 594,821.5C 597.595,823.098 600.595,825.431 603,828.5C 602.577,826.613 602.744,824.613 603.5,822.5C 607.345,822.289 611.345,822.122 615.5,822C 616.766,821.691 617.933,821.191 619,820.5C 619.687,822.639 620.02,824.972 620,827.5C 621.243,826.664 622.41,826.997 623.5,828.5C 621.563,830.04 620.396,832.04 620,834.5C 618.748,832.999 617.748,831.332 617,829.5C 614.959,830.423 612.792,830.756 610.5,830.5C 610.33,831.822 610.663,832.989 611.5,834C 609.951,835.214 608.785,836.714 608,838.5C 607.667,837.833 607.333,837.167 607,836.5C 605.328,837.502 604.162,838.668 603.5,840C 604.956,840.423 605.456,841.256 605,842.5C 602.423,843.271 599.923,844.271 597.5,845.5C 598.328,846.415 599.328,847.081 600.5,847.5C 602.452,846.186 604.285,845.52 606,845.5C 606.377,846.942 607.21,847.942 608.5,848.5C 608.167,849.167 607.833,849.833 607.5,850.5C 603.572,849.976 600.239,850.976 597.5,853.5C 597.167,853.5 596.833,853.5 596.5,853.5C 588.64,853.889 580.973,855.055 573.5,857C 571.825,857.985 570.158,858.819 568.5,859.5C 564.511,859.116 560.845,859.783 557.5,861.5C 554.236,862.324 550.902,862.658 547.5,862.5C 525.51,863.304 503.51,863.637 481.5,863.5C 479.5,863.5 477.5,863.5 475.5,863.5C 463.376,860.956 451.043,858.956 438.5,857.5C 438.167,857.5 437.833,857.5 437.5,857.5C 437.5,857.167 437.5,856.833 437.5,856.5C 438.873,856.657 440.207,856.49 441.5,856C 440.833,855.667 440.167,855.333 439.5,855C 442.106,854.55 443.439,853.05 443.5,850.5C 445.39,850.297 446.89,850.963 448,852.5C 448.251,850.567 448.751,848.734 449.5,847C 447.109,846.309 447.109,845.309 449.5,844C 444.216,842.711 444.216,841.378 449.5,840C 448.167,839 448.167,838 449.5,837C 450.899,836.405 452.232,836.572 453.5,837.5C 454.921,840.009 456.588,842.343 458.5,844.5C 460.889,844.021 462.556,842.688 463.5,840.5C 464.689,839.571 466.022,839.238 467.5,839.5C 467.5,835.5 469.5,833.5 473.5,833.5C 473.649,832.448 473.483,831.448 473,830.5C 470.93,830.904 468.764,830.904 466.5,830.5C 464.056,831.222 461.722,832.222 459.5,833.5C 455.599,831.46 451.599,830.626 447.5,831C 445.052,830.152 443.552,828.986 443,827.5C 440.667,828.5 438.333,829.5 436,830.5C 433.625,830.182 432.458,828.849 432.5,826.5C 437.157,825.503 441.824,824.503 446.5,823.5C 447.809,820.749 449.476,818.249 451.5,816C 453.676,815.837 455.509,815.004 457,813.5C 457.87,814.108 458.37,814.941 458.5,816C 458.2,818.024 457.367,818.524 456,817.5C 455.219,818.729 454.719,820.062 454.5,821.5C 456.502,823.669 458.669,825.669 461,827.5C 464.907,824.909 469.074,823.909 473.5,824.5C 476.443,823.756 479.443,823.256 482.5,823C 482.779,820.754 483.113,818.254 483.5,815.5C 485.201,815.034 486.701,815.034 488,815.5C 488.333,814.833 488.667,814.167 489,813.5C 490.153,816.152 491.987,818.152 494.5,819.5C 495.429,818.311 495.762,816.978 495.5,815.5C 496.552,815.649 497.552,815.483 498.5,815C 497.579,813.244 496.412,813.077 495,814.5C 493.7,812.541 491.867,811.374 489.5,811C 491.001,809.748 492.668,808.748 494.5,808C 492.092,806.378 489.926,804.545 488,802.5C 487.333,805.167 486.667,805.167 486,802.5C 482.947,804.148 481.947,806.482 483,809.5C 481.175,810.571 480.008,809.904 479.5,807.5C 480.428,806.232 480.595,804.899 480,803.5C 476.84,801.917 477.007,800.417 480.5,799C 475.76,798.621 475.594,797.121 480,794.5C 483.955,794.629 488.122,794.629 492.5,794.5C 504.838,794.667 517.171,794.5 529.5,794C 531.382,793.802 533.048,793.302 534.5,792.5C 544.846,791.276 555.179,789.942 565.5,788.5 Z"/></g>
<g><path style="opacity:0.133" fill="#020d2d" d="M 725.5,790.5 C 724.738,792.262 723.404,793.262 721.5,793.5C 722.262,791.738 723.596,790.738 725.5,790.5 Z"/></g>
<g><path style="opacity:0.311" fill="#005588" d="M 475.5,791.5 C 495.137,793.617 514.803,793.951 534.5,792.5C 533.048,793.302 531.382,793.802 529.5,794C 517.171,794.5 504.838,794.667 492.5,794.5C 486.736,794.017 481.069,793.017 475.5,791.5 Z"/></g>
<g><path style="opacity:0.153" fill="#020b2c" d="M 721.5,793.5 C 720.738,795.262 719.404,796.262 717.5,796.5C 718.262,794.738 719.596,793.738 721.5,793.5 Z"/></g>
<g><path style="opacity:1" fill="#016b9f" d="M 322.5,811.5 C 313.128,806.484 304.461,800.484 296.5,793.5C 299.541,793.551 302.208,794.551 304.5,796.5C 305.167,796.167 305.833,795.833 306.5,795.5C 305.674,794.549 305.508,793.549 306,792.5C 307.008,792.982 308.175,793.148 309.5,793C 309.957,793.414 310.291,793.914 310.5,794.5C 309.268,796.157 308.434,797.824 308,799.5C 308.414,799.957 308.914,800.291 309.5,800.5C 310.333,799.5 311.167,798.5 312,797.5C 315.715,801.466 319.215,806.133 322.5,811.5 Z"/></g>
<g><path style="opacity:0.114" fill="#010d2e" d="M 717.5,796.5 C 717.027,797.906 716.027,798.573 714.5,798.5C 714.973,797.094 715.973,796.427 717.5,796.5 Z"/></g>
<g><path style="opacity:0.094" fill="#020d2d" d="M 704.5,805.5 C 704.027,806.906 703.027,807.573 701.5,807.5C 701.973,806.094 702.973,805.427 704.5,805.5 Z"/></g>
<g><path style="opacity:0.063" fill="#010a2d" d="M 701.5,807.5 C 701.027,808.906 700.027,809.573 698.5,809.5C 698.973,808.094 699.973,807.427 701.5,807.5 Z"/></g>
<g><path style="opacity:1" fill="#023a66" d="M 698.5,809.5 C 695.506,812 692.173,814 688.5,815.5C 689.953,814.175 689.619,813.342 687.5,813C 691.032,811.368 694.699,810.201 698.5,809.5 Z"/></g>
<g><path style="opacity:0.024" fill="#000c35" d="M 681.5,819.5 C 681.027,820.906 680.027,821.573 678.5,821.5C 678.973,820.094 679.973,819.427 681.5,819.5 Z"/></g>
<g><path style="opacity:1" fill="#016393" d="M 339.5,821.5 C 344.544,822.236 349.211,823.903 353.5,826.5C 355.199,826.34 356.866,826.506 358.5,827C 358.043,827.414 357.709,827.914 357.5,828.5C 358.912,829.806 360.579,830.64 362.5,831C 363.252,831.671 363.586,832.504 363.5,833.5C 355.182,830.008 347.182,826.008 339.5,821.5 Z"/></g>
<g><path style="opacity:1" fill="#014372" d="M 672.5,824.5 C 663.05,830.223 653.05,834.89 642.5,838.5C 645.629,834.902 649.629,832.736 654.5,832C 654.167,831.667 653.833,831.333 653.5,831C 659.889,828.74 666.223,826.573 672.5,824.5 Z"/></g>
<g><path style="opacity:1" fill="#023e6b" d="M 634.5,841.5 C 625.914,845.473 616.914,848.473 607.5,850.5C 607.833,849.833 608.167,849.167 608.5,848.5C 613.838,847.531 618.838,845.698 623.5,843C 625.112,842.28 626.612,842.446 628,843.5C 630.007,842.331 632.173,841.665 634.5,841.5 Z"/></g>
<g><path style="opacity:0.937" fill="#012c55" d="M 394.5,845.5 C 397.916,845.528 400.916,846.528 403.5,848.5C 400.215,848.072 397.215,847.072 394.5,845.5 Z"/></g>
<g><path style="opacity:1" fill="#023c6b" d="M 607.5,850.5 C 604.45,852.101 601.116,853.101 597.5,853.5C 600.239,850.976 603.572,849.976 607.5,850.5 Z"/></g>
<g><path style="opacity:1" fill="#024d7a" d="M 403.5,848.5 C 407.509,848.858 411.509,849.358 415.5,850C 418.025,850.424 420.025,851.59 421.5,853.5C 415.181,852.611 409.181,850.944 403.5,848.5 Z"/></g>
<g><path style="opacity:0.98" fill="#012044" d="M 421.5,853.5 C 426.893,854.182 432.227,855.182 437.5,856.5C 437.5,856.833 437.5,857.167 437.5,857.5C 431.906,856.768 426.573,855.435 421.5,853.5 Z"/></g>
<g><path style="opacity:1" fill="#023d6a" d="M 596.5,853.5 C 587.522,856.63 578.189,858.63 568.5,859.5C 570.158,858.819 571.825,857.985 573.5,857C 580.973,855.055 588.64,853.889 596.5,853.5 Z"/></g>
<g><path style="opacity:0.522" fill="#011f45" d="M 438.5,857.5 C 451.043,858.956 463.376,860.956 475.5,863.5C 462.889,862.415 450.555,860.415 438.5,857.5 Z"/></g>
<g><path style="opacity:0.663" fill="#00234d" d="M 568.5,859.5 C 565.054,860.687 561.387,861.354 557.5,861.5C 560.845,859.783 564.511,859.116 568.5,859.5 Z"/></g>
<g><path style="opacity:0.989" fill="#003b66" d="M 547.5,862.5 C 534.871,864.035 522.037,864.702 509,864.5C 499.66,864.5 490.494,864.166 481.5,863.5C 503.51,863.637 525.51,863.304 547.5,862.5 Z"/></g>
</svg>
